<?xml version="1.0" encoding="UTF-8"?>
<svg width="43px" height="67px" viewBox="0 0 43 67" version="1.1" xmlns="http://www.w3.org/2000/svg" xmlns:xlink="http://www.w3.org/1999/xlink">
    <!-- Generator: Sketch 47.1 (45422) - http://www.bohemiancoding.com/sketch -->
    <title>Group 5@1x</title>
    <desc>Created with Sketch.</desc>
    <defs></defs>
    <g id="Page-1" stroke="none" stroke-width="1" fill="none" fill-rule="evenodd">
        <g id="Desktop" transform="translate(-243.000000, -324.000000)">
            <g id="Mobiil-ID" transform="translate(202.000000, 304.000000)">
                <g id="Group-5" transform="translate(41.000000, 20.000000)">
                    <text id="1213" fill="#000000" font-family="Roboto-Regular, Roboto" font-size="13" font-weight="normal">
                        <tspan x="7.40039062" y="30">1213</tspan>
                    </text>
                    <path d="M38.2232609,0 L4.77673913,0 C3.50986915,0 2.29488686,0.504066817 1.3990745,1.40131151 C0.503262142,2.29855619 0,3.51548114 0,4.78437675 L0,62.2156233 C0,63.4845189 0.503262142,64.7014438 1.3990745,65.5986885 C2.29488686,66.4959332 3.50986915,67 4.77673913,67 L38.2232609,67 C39.4901309,67 40.7051131,66.4959332 41.6009255,65.5986885 C42.4967379,64.7014438 43,63.4845189 43,62.2156233 L43,4.78437675 C43,2.14203843 40.861381,-5.32211999e-14 38.2232609,0 Z M4.77673913,4.78437675 L38.2232609,4.78437675 L38.2232609,47.8531302 L4.77673913,47.8531302 L4.77673913,4.78437675 Z M4.77673913,62.2156233 L4.77673913,52.637507 L38.2232609,52.637507 L38.2232609,62.2156233 L4.77673913,62.2156233 Z" id="Shape" fill="#333333" fill-rule="nonzero"></path>
                    <rect id="Rectangle-path" fill="#000000" fill-rule="nonzero" x="19" y="54" width="5" height="5"></rect>
                </g>
            </g>
        </g>
    </g>
</svg>