<?xml version="1.0" encoding="utf-8"?>
<!-- Generator: Adobe Illustrator 22.0.1, SVG Export Plug-In . SVG Version: 6.00 Build 0)  -->
<svg version="1.1" id="Layer_1" xmlns="http://www.w3.org/2000/svg" xmlns:xlink="http://www.w3.org/1999/xlink" x="0px" y="0px"
	 viewBox="0 0 86 50" style="enable-background:new 0 0 86 50;" xml:space="preserve">
<style type="text/css">
	.st0{font-family:'RobotoCondensed-Regular';}
	.st1{font-size:14.34px;}
	.st2{clip-path:url(#SVGID_2_);fill:#998B66;}
	.st3{clip-path:url(#SVGID_4_);fill:#0039A6;}
	.st4{clip-path:url(#SVGID_6_);fill:#0039A6;}
	.st5{clip-path:url(#SVGID_8_);fill:#0039A6;}
	.st6{clip-path:url(#SVGID_10_);fill:#0039A6;}
	.st7{clip-path:url(#SVGID_12_);fill:#0039A6;}
	.st8{clip-path:url(#SVGID_14_);fill:#0039A6;}
	.st9{clip-path:url(#SVGID_16_);fill:#0039A6;}
	.st10{clip-path:url(#SVGID_18_);fill:#0039A6;}
	.st11{clip-path:url(#SVGID_20_);fill:#0039A6;}
	.st12{clip-path:url(#SVGID_22_);fill:#0039A6;}
	.st13{clip-path:url(#SVGID_24_);fill:#0039A6;}
	.st14{clip-path:url(#SVGID_26_);fill:#0039A6;}
	.st15{clip-path:url(#SVGID_28_);fill:#0039A6;}
	.st16{clip-path:url(#SVGID_30_);fill:#0039A6;}
	.st17{clip-path:url(#SVGID_32_);fill:#0039A6;}
</style>
<text transform="matrix(1 0 0 1 54.6362 27)" class="st0 st1">TARA</text>
<g>
	<defs>
		<path id="SVGID_1_" d="M22.2,49c-1.2-1.2-2.6-2.1-4.1-2.8c-0.9-0.4-1.9-0.7-2.8-0.9c-1.5-0.4-2.4-0.5-3.8-0.9
			c-1.6-0.3-3.1-1-4.4-1.9C6,41.8,5.2,41,4.5,40c-1.4-2-2.4-4.2-2.9-6.5c1.1-1.3,3.3-4.3,3.8-6.6c-0.9,2.3-2.2,4.3-3.9,6l0.5-1.9
			c1.6-1.2,2.8-2.8,3.5-4.6c0.8-2.2,1.3-4.5,1.4-6.9c0-0.8,0-1.5,0-2.3V17c-0.1-1.4-0.5-2.7-1.2-3.9c-0.4-0.9-1-1.6-1.8-2.1
			c0.1,0.6-0.2,1.3-0.8,1.5c-0.8,0.2-1.6-0.1-2-0.9c-0.2-0.4-0.3-0.9-0.2-1.4c0,0,0-0.1,0-0.1c0-0.1,0.1-0.2,0.1-0.3
			C0.9,9.7,1,9.5,1.2,9.4c0.9-0.6,2.1-0.6,2.9,0c0.6,0.4,1.1,0.9,1.3,1.5c0.3,0.6,0.6,1.3,0.7,2c0.2,0.7,0.3,1.3,0.4,1.8
			c-0.3-2-0.3-2.6-1.1-4.2C4.9,9.4,3.6,8.6,2.3,8.7c-0.4,0-0.8,0.1-1.1,0.4c0.5-0.8,1.2-1.5,2-2.2c1.5-1.1,2.7-2.6,3.5-4.3
			c1.8,0.5,3.8,0.5,5.6-0.2c1.4-0.4,2.1-0.9,3.5-1.1C16.7,1.1,17.6,1,18.5,1c1.3,0,2.6,0.4,3.6,1.2c1-0.8,2.3-1.2,3.6-1.2
			c0.9,0,1.8,0.1,2.7,0.3c1.4,0.3,2.2,0.8,3.5,1.1c1.8,0.6,3.7,0.7,5.6,0.2c0.8,1.7,2,3.2,3.5,4.3c0.8,0.6,1.4,1.3,2,2.2
			c-0.3-0.2-0.7-0.3-1.1-0.4c-1.3,0-2.6,0.7-3.2,1.9c-0.8,1.6-0.7,2.2-1.1,4.2c0.1-0.5,0.2-1.1,0.4-1.8c0.1-0.7,0.4-1.4,0.7-2
			c0.3-0.6,0.7-1.2,1.3-1.5c0.9-0.6,2.1-0.6,2.9,0c0.2,0.1,0.3,0.3,0.4,0.5l0.1,0.3c0,0,0,0.1,0,0.1c0.1,0.5,0.1,1-0.2,1.4
			c-0.4,0.7-1.2,1.1-2,0.9c-0.6-0.2-1-0.9-0.8-1.5c-0.8,0.5-1.5,1.2-1.8,2.1c-0.7,1.2-1.1,2.5-1.2,3.9v0.1c-0.1,0.8-0.1,1.5,0,2.3
			c0.1,2.4,0.6,4.7,1.5,6.9c0.7,1.8,1.9,3.4,3.5,4.6l0.5,1.9c-1.7-1.7-3.1-3.8-4-6c0.5,2.3,2.7,5.3,3.8,6.6
			c-0.6,2.3-1.6,4.6-2.9,6.5c-0.7,1-1.6,1.8-2.6,2.5c-1.3,0.9-2.8,1.6-4.4,1.9c-1.4,0.4-2.3,0.5-3.8,0.9c-1,0.2-1.9,0.5-2.8,0.9
			C24.7,46.9,23.4,47.8,22.2,49"/>
	</defs>
	<clipPath id="SVGID_2_">
		<use xlink:href="#SVGID_1_"  style="overflow:visible;"/>
	</clipPath>
	<rect x="-4.4" y="-4" class="st2" width="53" height="58"/>
</g>
<g>
	<defs>
		<path id="SVGID_3_" d="M27,30c-0.3,0.1-0.5,0.2-0.8,0.3c-0.7,0.1-1.5,0-2.2-0.2c-0.4,0-0.9,0-1.3,0.2c-0.4,0.1-0.8,0.4-0.9,0.7
			c-0.2,0.3-0.2,0.7,0,1c0.1,0.3,0.4,0.5,0.7,0.7c0.4,0.2,0.8,0.3,1.3,0.3c0.6,0,1.3,0,1.9-0.2c0.7-0.1,1-0.3,1.7-0.4
			c0.6-0.2,1.1-0.3,1.8-0.4c0.2-0.2,0.5-0.4,0.7-0.6c0.2-0.2,0.5-0.3,0.8-0.4c0,0,0-0.1,0-0.1c0,0,0-0.1,0-0.1
			c-0.7,0.2-1.1,0.2-1.8,0.4c-0.7,0.2-1.1,0.3-1.9,0.5c-0.7,0.2-1.1,0.3-1.9,0.5c-0.3,0.1-0.6,0.1-1,0.1c-0.3,0-0.5,0-0.8-0.1
			c-0.2-0.1-0.4-0.2-0.5-0.5c-0.1-0.1-0.1-0.2,0-0.3c0.1-0.1,0.1-0.1,0.2-0.1c0.1,0,0.3,0.1,0.3,0.2c0,0.1,0,0.2-0.1,0.3
			c0.1,0,0.2,0,0.3,0c0.2,0,0.3,0,0.5-0.1c0.1-0.1,0.2-0.2,0.2-0.3c0-0.2-0.1-0.3-0.2-0.4c-0.1-0.1-0.2-0.1-0.3-0.1
			c0.2-0.1,0.3-0.1,0.5,0c0.1,0,0.1,0.1,0.2,0.1c0.1,0.1,0.1,0.3,0.1,0.4c0.3,0,0.6,0,0.9-0.1c0.3-0.1,0.6-0.3,0.9-0.5
			C26.7,30.6,26.9,30.3,27,30"/>
	</defs>
	<clipPath id="SVGID_4_">
		<use xlink:href="#SVGID_3_"  style="overflow:visible;"/>
	</clipPath>
	<rect x="16.6" y="25" class="st3" width="19" height="13"/>
</g>
<g>
	<defs>
		<path id="SVGID_5_" d="M17.9,35c0.1,0,0.2,0,0.2,0c0.1,0,0.6,0,0.5,0.3c-0.1,0.3-0.2,0.2-0.3,0.2c-0.1,0-0.1,0-0.2,0
			c-0.1,0-0.1,0-0.2,0c-0.1,0-0.2,0-0.3-0.2C17.6,35.1,17.8,35.1,17.9,35"/>
	</defs>
	<clipPath id="SVGID_6_">
		<use xlink:href="#SVGID_5_"  style="overflow:visible;"/>
	</clipPath>
	<rect x="12.6" y="30" class="st4" width="11" height="10.5"/>
</g>
<g>
	<defs>
		<path id="SVGID_7_" d="M18.6,34.1c0,0.2,0,0.5-0.1,0.7c-0.1,0-0.3-0.1-0.4,0c-0.2,0-0.3,0-0.4,0c0-0.3-0.1-0.5,0-0.8l0.2,0.3
			c0,0,0.1-0.3,0.1-0.3c0,0,0.1,0,0.1,0c0,0,0.1,0,0.1,0c0,0,0.1,0.2,0.1,0.2c0,0,0,0.1,0,0.1L18.6,34.1L18.6,34.1z"/>
	</defs>
	<clipPath id="SVGID_8_">
		<use xlink:href="#SVGID_7_"  style="overflow:visible;"/>
	</clipPath>
	<rect x="12.6" y="29" class="st5" width="11" height="10.8"/>
</g>
<g>
	<defs>
		<path id="SVGID_9_" d="M31.7,36.7c0.2,0.3,0.5,0.4,0.8,0.4h0.9c0-0.1-0.1-0.1-0.1-0.2c-0.1-0.1-0.3-0.2-0.4-0.2
			c-0.2,0-0.4,0-0.7,0c-0.3,0-0.5-0.1-0.7-0.2C31.5,36.6,31.6,36.7,31.7,36.7L31.7,36.7z M20,34c-0.1,0.1-0.1,0.1-0.1,0.2
			c0,0.1,0,0.1-0.1,0.2c0,0.1,0,0.2,0.1,0.2c0,0.1,0.1,0.1,0.1,0.2c0,0.1,0.1,0.1,0.1,0.2c0,0.1,0,0.2,0,0.2c0-0.1,0.1-0.1,0.1-0.2
			c0.1-0.1,0.1-0.2,0.1-0.3c0-0.1,0-0.2-0.1-0.3c0-0.1-0.1-0.1-0.1-0.2c0-0.1-0.1-0.1-0.1-0.2C20,34.1,20,34,20,34L20,34z M20.4,34
			l0.1,0.2c0,0.1,0,0.1,0.1,0.2c0-0.1,0-0.1,0-0.2c0-0.1,0-0.1,0-0.2c0-0.1,0-0.2-0.1-0.3l-0.3-0.3c0-0.1-0.1-0.1-0.1-0.2
			c0,0,0-0.1,0-0.1c-0.1,0-0.1,0.1-0.1,0.1c-0.1,0.1-0.1,0.2-0.1,0.3c0,0.1,0,0.2,0.1,0.2l0.2,0.3C20.3,33.9,20.3,33.9,20.4,34
			L20.4,34z M16.3,34c0,0.1,0.1,0.1,0.1,0.2c0,0.1,0,0.2,0,0.2c0,0.1,0,0.2-0.1,0.2c0,0.1-0.1,0.1-0.1,0.2c-0.1,0.1-0.1,0.1-0.1,0.2
			c0,0.1,0,0.2,0,0.2c0-0.1-0.1-0.1-0.1-0.2c-0.1-0.1-0.1-0.2-0.1-0.3c0-0.1,0-0.2,0.1-0.3c0-0.1,0.1-0.1,0.1-0.2
			c0-0.1,0.1-0.1,0.1-0.2C16.3,34.1,16.3,34,16.3,34L16.3,34z M16,33.9c0,0.1-0.1,0.1-0.1,0.2l-0.1,0.2c0-0.1,0-0.1,0-0.2
			c0,0-0.1-0.1-0.1-0.1c0-0.1,0-0.2,0.1-0.3l0.3-0.3c0-0.1,0-0.1,0.1-0.2c0,0,0-0.1,0-0.1c0.1,0,0.1,0.1,0.1,0.1
			c0.1,0.1,0.1,0.2,0.1,0.3c0,0.1,0,0.2-0.1,0.2L16,33.9L16,33.9L16,33.9z M18.6,31.6c0,0-0.1,0.1-0.1,0.2c0,0.1,0.1,0.2,0.2,0.2
			c0.1,0,0.1,0,0.2-0.1c0,0,0.1-0.1,0.1-0.2c0-0.1,0-0.2-0.1-0.2h0.3c0.1,0,0.2-0.1,0.2-0.1c0.1-0.1,0.1-0.1,0.1-0.2
			c-0.1,0.1-0.2,0.1-0.3,0.1h-0.9c-0.1,0-0.1,0.1-0.1,0.1c0,0,0,0.1,0,0.1v0.1c0.1,0,0.1-0.1,0.1-0.1L18.6,31.6L18.6,31.6z
			 M17.1,31.6c0,0-0.1,0.1-0.1,0.2c0,0.1,0.1,0.2,0.2,0.2c0,0.1,0.2,0.2,0.3,0.2c0.1,0,0.2-0.2,0.2-0.3c0-0.1,0-0.2-0.1-0.2h0.3
			c0.1,0,0.1,0,0.1,0.1v-0.1c0-0.1,0-0.1,0-0.2c0,0-0.1-0.1-0.1-0.1h-0.9c-0.1,0-0.2,0-0.3-0.1c0,0.1,0,0.2,0.1,0.2
			C16.9,31.6,17,31.7,17.1,31.6l0.4,0L17.1,31.6z M18.9,34.4c0-0.3,0-0.6,0-0.8c0.3-0.1,0.5-0.3,0.5-0.6c0.6-0.1,1-0.6,0.9-1.2
			c0-0.2-0.1-0.3-0.3-0.4v0.5c0,0.2,0,0.4-0.2,0.6c-0.1,0.2-0.4,0.3-0.6,0.3h-0.1c0.1,0.8-1.1,0.9-1,0.2c0.2-0.1,0.3-0.2,0.3-0.3
			h-0.8c0,0.2,0.1,0.3,0.3,0.3c0.1,0.7-1.1,0.6-1-0.2h-0.1c-0.2,0-0.4-0.1-0.6-0.3c-0.1-0.2-0.2-0.4-0.2-0.6v-0.5
			c-0.1,0.1-0.2,0.3-0.3,0.4c-0.1,0.6,0.3,1.1,0.9,1.2c0,0.3,0.2,0.5,0.5,0.6c0,0.3,0,0.6,0,0.8C17.1,34.6,17,34.8,17,35
			c0,0.1,0,0.3,0.2,0.3c0.3,0.2,0.4,0.1,0.8,0.1h0.3c0.1,0,0.3,0,0.4-0.1c0.1-0.1,0.2-0.2,0.2-0.4C18.9,34.8,18.9,34.6,18.9,34.4
			L18.9,34.4z M18.2,37c-0.2,0-0.4-0.1-0.6-0.2c0,0-0.1-0.1-0.1-0.1c0,0-0.1-0.1-0.1-0.1l-0.2-0.1c-0.1,0-0.1-0.1-0.2-0.1
			c-0.1,0-0.1-0.1-0.1-0.2c0-0.1,0-0.1,0-0.2l-0.2-0.2c-0.1-0.1-0.1-0.1-0.2-0.2c0-0.1-0.1-0.1-0.1-0.2c0,0,0-0.1,0-0.1
			c0-0.1,0-0.1,0-0.2l0.1-0.2c0,0,0-0.1,0-0.1c0,0,0-0.1,0-0.1l0.2,0.2c0,0,0,0.1,0,0.1c0,0,0,0.1,0,0.1c0,0,0,0.1-0.1,0.2
			c0,0,0,0.1,0,0.1l0.2,0.2c0,0,0.1,0,0.1,0c0.1,0,0.1-0.1,0.1-0.1c0,0,0-0.1,0-0.1l0.1,0.2c0,0,0,0.1,0,0.1c0,0,0,0.1,0,0.1
			l-0.1,0.2c0,0,0,0.1,0,0.1c0,0,0,0.1,0.1,0.1c0,0,0.1,0.1,0.1,0.1c0.1,0,0.1,0,0.1,0s0,0,0.1-0.1v-0.2c0,0,0,0,0-0.1
			c0,0,0-0.1,0-0.1l0.2,0.1c0.1,0,0.1,0.1,0.1,0.1c0,0,0,0.1,0,0.1v0.2c0,0,0,0.1,0,0.1c0,0,0.1,0.1,0.1,0.1c0.1,0,0.1,0.1,0.2,0.1
			V36h0.2v0.6c0.1,0,0.1,0,0.2-0.1c0.1,0,0.1-0.1,0.1-0.1c0,0,0-0.1,0-0.1v-0.2c0,0,0-0.1,0-0.1c0,0,0-0.1,0.1-0.1l0.2-0.1
			c0,0,0,0.1,0,0.1c0,0,0,0,0,0.1v0.2c0,0,0,0.1,0.1,0.1c0.1,0,0,0,0.1,0s0.1,0,0.1-0.1c0,0,0-0.1,0.1-0.1c0,0,0-0.1,0-0.1l-0.1-0.2
			c0,0,0-0.1,0-0.1c0,0,0-0.1,0-0.1l0.1-0.2c0,0,0,0.1,0,0.1c0,0,0,0.1,0.1,0.1c0,0,0.1,0,0.1,0l0.2-0.2c0,0,0-0.1,0-0.1
			c0-0.1,0-0.1-0.1-0.2c0,0,0-0.1,0-0.1c0,0,0-0.1,0-0.1l0.2-0.2c0,0,0,0.1,0,0.1c0,0,0,0.1,0,0.1l0.1,0.2c0,0.1,0,0.1,0,0.2
			c0,0,0,0.1,0,0.1c0,0.1-0.1,0.1-0.1,0.2c-0.1,0.1-0.1,0.1-0.2,0.2L19.2,36c0,0.1,0,0.1,0,0.2c0,0.1-0.1,0.1-0.1,0.2
			c-0.1,0.1-0.1,0.1-0.2,0.1l-0.2,0.1c0,0.1,0,0.1-0.1,0.1c0,0-0.1,0.1-0.1,0.1C18.4,36.9,18.2,37,18,37H18.2z M18.6,30.1h0.3
			c0,0,0.1,0,0.1,0c0,0,0.1,0.1,0.1,0.1l0.3,0.4l0.1,0.1c0,0,0.1,0,0.1,0h-0.3c-0.1,0-0.1,0-0.2,0c-0.1,0-0.1-0.1-0.1-0.1l-0.2-0.3
			L18.6,30.1L18.6,30.1L18.6,30.1z M17.1,30.1h0.3c0,0,0.1,0,0.1,0c0,0,0.1,0,0.1,0.1l0.3,0.4c0,0,0,0,0,0.1c0,0,0.1,0,0.1,0h-0.3
			c-0.1,0-0.1,0-0.2,0c-0.1,0-0.1-0.1-0.1-0.1L17.1,30.1L17.1,30.1L17.1,30.1L17.1,30.1z M17.7,30h0.3c0.1,0,0.1,0,0.2,0.1
			c0.1,0,0.1,0.1,0.1,0.1l0.4,0.5c0,0,0,0.1,0.1,0.1c0,0,0.1,0.1,0.1,0.1h-0.3c-0.1,0-0.1,0-0.2-0.1c0,0-0.1-0.1-0.1-0.1L18,30.2
			l-0.1-0.1C17.9,30,17.8,30,17.7,30z M34.2,35.9h0.7c0.1,0,0.2,0,0.2,0.1c0.1,0,0.1,0.1,0.2,0.1l0.4,0.5l-0.2-0.1
			c-0.1,0-0.2,0-0.3,0h-0.6h-0.1c0,0-0.1,0-0.1,0l0.1,0.2c0,0.1,0.1,0.1,0.1,0.1c0.1,0,0.1,0,0.2,0h0.7c0.2,0,0.3,0.1,0.4,0.2
			l0.4,0.5l-0.2-0.1c-0.1,0-0.2,0-0.3,0h-0.7h-0.1l0.2,0.2c0.1,0.1,0.2,0.1,0.3,0.1h0.3c0.1,0,0.3,0,0.4,0.1c0.1,0,0.2,0.1,0.3,0.2
			c0.1,0.1,0.1,0.2,0.1,0.3c0,0.1,0,0.2,0,0.4c0-0.1-0.1-0.2-0.2-0.2c-0.1,0-0.1,0-0.2,0h-0.4c0.1,0.1,0.1,0.3,0.1,0.4
			c0,0.2,0,0.3-0.1,0.5c0.2,0.1,0.3,0.4,0.2,0.6c0,0.2-0.1,0.3-0.2,0.4c-0.2,0.2-0.4,0.1-0.6,0.2c-0.3,0-0.2,0-0.4,0
			c-0.1,0-0.1,0.1-0.2,0.1c-0.1,0.1-0.1,0.2-0.2,0.3c-0.1,0-0.1-0.1-0.2-0.2c0-0.1,0-0.2,0-0.2c-0.1-0.1-0.2-0.2-0.3-0.4
			c0-0.1,0-0.3,0.1-0.4c0.1-0.1,0.2-0.2,0.4-0.2c-0.3,0-0.5,0.1-0.6,0.3c-0.2,0.2-0.1,0.4,0,0.7c-0.1,0-0.1,0-0.2,0
			c-0.1,0-0.2,0-0.3,0c-0.1,0-0.2,0-0.2,0.1c-0.2,0.1-0.4,0.2-0.5,0.4c-0.1-0.1-0.1-0.2-0.1-0.3c0-0.1,0-0.2,0.1-0.3
			c0-0.3,0.1-0.6,0.3-0.8c0.1-0.1,0.3-0.3,0.4-0.3c-0.1,0-0.3,0-0.4,0.1c-0.3,0.1-0.5,0.4-0.5,0.7c-0.1,0-0.2,0.1-0.4,0.1
			c-0.1,0.1-0.2,0.2-0.3,0.3c-0.1-0.2-0.1-0.4,0-0.6c0-0.1,0.1-0.2,0.2-0.2c0-0.1,0-0.3,0.1-0.4c0.1-0.2,0.2-0.4,0.4-0.5
			c0.2-0.1,0.3-0.1,0.5-0.1c0.3,0,0.4,0.1,0.7,0c0.1,0,0.2,0,0.3-0.1c0.1-0.1,0.1-0.2,0.1-0.4c0-0.1,0-0.2-0.1-0.3h-0.7
			c-0.1,0.2-0.3,0.3-0.5,0.4c-0.1,0.1-0.3,0.1-0.4,0.1c0-0.1,0-0.2,0-0.2C32.2,38.1,32.1,38,32,38c-0.2-0.1-0.3-0.2-0.5-0.3
			c-0.2-0.1-0.4-0.3-0.6-0.4c-0.3-0.4-0.4-0.9-0.4-1.4c0-0.2,0-0.3,0-0.5c0-0.2-0.1-0.3-0.2-0.4c-0.1-0.1-0.2-0.2-0.3-0.3
			c-0.3-0.2-0.6-0.2-0.9-0.2c-0.5,0.1-1,0.2-1.5,0.5c-1,0.4-1.5,0.8-2.5,1.2c-0.7,0.3-1,0.5-1.7,0.8c-0.2,0.1-0.3,0.3-0.3,0.5
			c0,0.1,0.1,0.1,0.1,0.2c0.1,0,0.1,0,0.2,0l-0.5,0.2c-0.1,0-0.2,0-0.2,0c-0.1,0-0.2,0-0.2-0.1l-0.6-0.3l-0.2-0.1
			c-0.1,0-0.2,0-0.3,0c-0.1,0-0.2,0-0.3,0h0.1l0.1,0l0.8,0.4c0.1,0,0.1,0.1,0.2,0.1c0.1,0,0.1,0,0.2,0l-0.4,0.2c-0.1,0-0.1,0-0.2,0
			c-0.1,0-0.2,0-0.2-0.1l-1-0.6c0.1-0.1,0.1-0.2,0.1-0.3c0-0.1,0-0.2,0-0.3c0.1-0.1,0.3-0.3,0.4-0.4c0.1-0.1,0.1-0.2,0.1-0.3
			c0-0.1,0-0.2,0-0.3l0.1-0.1c0.1-0.1,0.1-0.1,0.2-0.2c0.1-0.1,0.1-0.3,0.1-0.5c0-0.1,0-0.2,0-0.3c0-0.1-0.1-0.2-0.1-0.2
			c-0.1-0.1-0.1-0.1-0.2-0.2c0,0-0.1-0.1-0.1-0.1c0,0-0.1-0.1-0.1-0.1l-0.1,0.2c0,0,0,0.1,0,0.1c0,0.1,0,0.1,0.1,0.1l0.1,0.2
			c0.1,0.1,0.1,0.2,0.1,0.3c0,0.1,0,0.2,0,0.3c0,0-0.1,0.1-0.1,0.1c0,0.1-0.1,0.1-0.1,0.1l-0.1-0.2L21,35.2c0,0,0-0.1,0-0.1
			c0,0,0-0.1,0-0.1l-0.2,0.2c0,0.1,0,0.1,0,0.2c0,0,0,0.1,0,0.1l0.2,0.3c0,0.1,0,0.1,0,0.2c0,0.1,0,0.1,0,0.2c0,0.1-0.1,0.2-0.1,0.2
			c0,0.1-0.1,0.1-0.2,0.2c0-0.2-0.1-0.2-0.1-0.4c0-0.1-0.1-0.1-0.1-0.2c0,0,0-0.1,0-0.1c0-0.1,0-0.1,0-0.2l-0.2,0.2c0,0,0,0.1,0,0.1
			c0,0.1,0,0.1,0,0.2c0,0.2,0.1,0.3,0.2,0.5c0,0.2,0,0.4,0,0.5c0,0.1,0,0.1-0.1,0.2c0,0.1,0,0.1-0.1,0.1h0.1h0.1l0.8,0.4
			c0.1,0,0.1,0.1,0.2,0.1c0.1,0,0.1,0,0.2,0l-0.4,0.2c-0.1,0-0.2,0-0.2,0c-0.1,0-0.2,0-0.2-0.1l-1.1-0.4c0-0.1,0-0.2,0.1-0.3
			c0-0.1,0-0.2,0-0.2c0-0.1,0-0.2,0-0.3c0-0.1-0.1-0.2-0.1-0.3c0,0,0-0.1,0-0.1c0-0.1,0-0.1,0-0.2l-0.2,0.2c-0.1,0,0,0.1-0.1,0.2
			c0,0,0,0.1,0,0.1l0.1,0.4c0,0.1,0,0.2,0,0.3c0,0.1,0,0.3-0.1,0.4c0,0,0.1,0,0.1,0l0.8,0.4c0.1,0,0.1,0.1,0.2,0.1
			c0.1,0,0.1,0,0.2,0l-0.4,0.2c-0.1,0-0.2,0-0.2,0c-0.1,0-0.2,0-0.2-0.1l-0.8-0.4c0.1-0.1,0.1-0.3,0.1-0.5c0-0.1,0-0.2,0-0.2
			c0-0.1,0-0.1-0.1-0.2c0-0.1,0-0.1,0-0.2c0,0,0-0.1,0-0.1L19,37c0,0-0.1,0.1-0.1,0.1c0,0.1,0,0.1,0,0.2c0,0.1,0,0.1,0,0.2
			c0,0.1,0.1,0.2,0.1,0.2c0,0.1,0,0.2,0,0.3c0,0.1-0.1,0.2-0.2,0.3l0.8,0.4c0.1,0,0.1,0.1,0.2,0.1c0.1,0,0.1,0,0.2,0l-0.3,0.1
			c-0.1,0-0.2,0.1-0.3,0.1c-0.1,0-0.2,0-0.3,0l-0.4-0.2c-0.1,0-0.1,0-0.1-0.1c0,0-0.1-0.1-0.1-0.1v-1.1h-0.3v1.1
			c-0.1-0.1-0.3-0.1-0.4-0.2c-0.1-0.1-0.1-0.2-0.2-0.2c0-0.1,0-0.2,0-0.3c0-0.1,0-0.2,0.1-0.2c0-0.1,0-0.1,0-0.2c0-0.1,0-0.1,0-0.2
			c0,0,0-0.1-0.1-0.1L17.5,37c0,0,0,0.1,0,0.1c0,0.1,0,0.1,0,0.2c0,0.1-0.1,0.1-0.1,0.2c0,0.1,0,0.2,0,0.2c0,0.1,0,0.2,0,0.3
			c0,0.1,0.1,0.2,0.2,0.3l-0.6,1c-0.1,0.1-0.3,0.2-0.4,0.2h-0.5c0.1,0,0.1-0.1,0.2-0.1c0.1-0.1,0.1-0.1,0.2-0.2l0.4-0.6l0.1-0.1
			c0,0,0.1-0.1,0.1-0.1h-0.3c-0.1,0-0.1,0-0.2,0.1c-0.1,0-0.1,0.1-0.2,0.2L16,39.4c-0.1,0.1-0.1,0.1-0.2,0.2c-0.1,0-0.2,0.1-0.2,0.1
			h-0.5l0.2-0.1c0.1-0.1,0.1-0.1,0.2-0.2l0.4-0.6c0,0,0-0.1,0.1-0.1c0,0,0.1-0.1,0.1-0.1h-0.3c-0.2,0-0.3,0.1-0.4,0.3
			c0,0-0.1,0.1-0.1,0.1l-0.4,0.5c-0.1,0.1-0.2,0.2-0.4,0.2c0,0,0.1-0.1,0.1-0.2c0-0.1,0-0.2-0.1-0.3c-0.1-0.1-0.2-0.1-0.3-0.1
			c-0.1,0-0.2,0-0.2,0.1c-0.1,0.1-0.1,0.2-0.1,0.3c0.1,0.1,0.2,0.2,0.2,0.3c0,0.2-0.1,0.4-0.2,0.5c-0.1,0.1-0.2,0.1-0.3,0.1
			c-0.1,0.1-0.1,0.2-0.2,0.3c-0.1,0.1-0.3,0.2-0.5,0.2c0-0.1,0.1-0.1,0.1-0.2c0-0.1,0-0.1,0-0.2c-0.1,0-0.2,0-0.2-0.1
			c-0.1-0.1-0.2-0.2-0.2-0.3c0-0.2,0-0.4,0.2-0.5c0.1-0.1,0.2-0.1,0.3-0.2c-0.1,0-0.2,0-0.3,0c-0.3,0.1-0.4,0.4-0.4,0.7
			c0,0.1,0,0.2,0.1,0.3c-0.1,0-0.3,0-0.4,0h-0.3c-0.2,0-0.3,0.1-0.4,0.2c-0.1,0.1-0.2,0.2-0.3,0.3c-0.1-0.2-0.2-0.4-0.1-0.6
			c0-0.1,0.1-0.2,0.3-0.3c0-0.1,0-0.3,0-0.5c0.1-0.3,0.3-0.4,0.6-0.5c-0.3,0-0.6,0.1-0.7,0.3c-0.2,0.2-0.2,0.4-0.2,0.6l-0.1,0.2
			c-0.1,0-0.1,0-0.2-0.1L10.3,40c-0.1,0-0.2,0-0.3,0.1c-0.1,0.1-0.2,0.2-0.3,0.3c-0.1-0.1-0.2-0.2-0.2-0.3c0-0.1,0.1-0.2,0.2-0.3
			l0.2-0.2c-0.1-0.4,0.1-0.8,0.4-0.9c0.2-0.1,0.5-0.2,0.7-0.2c0.1,0,0.2,0,0.4,0c-0.1-0.1-0.3-0.2-0.4-0.2c-0.2,0-0.4,0-0.5,0.1
			c0.1-0.1,0.2-0.3,0.3-0.3c0.2-0.1,0.3-0.1,0.5-0.1c0.1,0,0.3,0,0.4,0.1c0.2,0.1,0.4,0.1,0.6,0.1c0.6,0,0.9-0.3,1.5-0.6
			c0.4-0.2,0.2-0.2,0.9-0.5H16c0.1,0.1,0.2,0.2,0.3,0.2c0.1,0,0.1,0.1,0.2,0.1c0,0.1,0,0.1,0.1,0.1c0,0.1,0.1,0.1,0.1,0.2
			c0.1,0.1,0.1,0.1,0.2,0.1c0-0.1-0.1-0.2-0.1-0.3c0-0.1,0-0.2,0-0.2l0.1-0.3c0,0,0-0.1,0-0.1c0-0.1,0-0.1-0.1-0.2l-0.2-0.2
			c0,0.1,0,0.1,0,0.2c0,0,0,0.1,0,0.1l-0.1,0.3c-0.1,0-0.2-0.1-0.2-0.1c-0.1-0.1-0.1-0.1-0.2-0.2c0-0.1,0-0.1,0-0.2l0.1-0.4
			c0-0.1,0-0.2,0-0.3l-0.2-0.2c0,0.1,0,0.1,0,0.2c0,0,0,0.1,0,0.1c0,0.1-0.1,0.2-0.1,0.3c0,0.1-0.1,0.2-0.1,0.4
			c-0.1-0.1-0.1-0.1-0.2-0.2c-0.1-0.1-0.1-0.1-0.1-0.2c0-0.1,0-0.1,0-0.2c0-0.1,0-0.1,0-0.2l0.2-0.3c0-0.1,0-0.1,0-0.2
			c0,0,0-0.1,0-0.1L15.7,35c0,0,0,0.1,0,0.1c0,0,0,0.1,0,0.1l-0.1,0.2l-0.1,0.2c-0.1,0-0.1-0.1-0.1-0.1c0,0-0.1-0.1-0.1-0.1
			c0-0.1,0-0.2,0-0.3c0-0.1,0-0.2,0.1-0.3l0.1-0.2c0,0,0.1-0.1,0.1-0.1c0,0,0-0.1,0-0.1l-0.1-0.2c0,0.1,0,0.1-0.1,0.1
			c0,0,0,0.1-0.1,0.1c-0.1,0.1-0.1,0.1-0.2,0.2c-0.1,0.1-0.1,0.1-0.1,0.2c0,0.1,0,0.2,0,0.3c0,0.2,0,0.3,0.1,0.5
			c0,0.1,0.1,0.2,0.2,0.2c0,0,0.1,0.1,0.1,0.1c0,0.1,0,0.2,0,0.3c0,0.1,0.1,0.2,0.1,0.3c0.1,0.2,0.2,0.3,0.3,0.4h-1.3
			c-0.1,0-0.2,0-0.3-0.1c-0.1,0-0.2-0.1-0.2-0.1l-0.4-0.4l0.2,0.1c0.1,0,0.2,0,0.3,0H15h0.1h0.2l-0.2-0.2C15,36.1,14.9,36,14.8,36
			c-0.1,0-0.2,0-0.3,0h-0.9c-0.1,0-0.2,0-0.3-0.1c-0.1,0-0.2-0.1-0.2-0.1l-0.4-0.4l0.2,0.1c0.1,0,0.2,0,0.3,0h0.9h0.2l-0.2-0.2
			c-0.1-0.1-0.2-0.1-0.3-0.1c-0.1,0-0.2,0-0.3,0h-0.8c-0.1,0-0.2,0-0.3-0.1c-0.1,0-0.2-0.1-0.2-0.1l-0.4-0.4l0.2,0.1
			c0.1,0,0.2,0,0.3,0h0.8h0.1h0.1l-0.2-0.2c-0.1-0.1-0.2-0.1-0.3-0.1c-0.1,0-0.2,0-0.3,0h-0.8c-0.1,0-0.2,0-0.3-0.1
			c-0.1,0-0.1-0.1-0.2-0.1L11.4,34c0.1,0,0.2,0,0.4,0c0.2-0.1,0.3-0.2,0.3-0.4c0-0.1-0.1-0.3-0.2-0.3c-0.1-0.1-0.2-0.1-0.3-0.1
			c-0.1,0-0.1,0.1-0.2,0.1c-0.1,0-0.2,0.1-0.3,0.1c-0.1,0-0.2,0-0.3-0.1c-0.2-0.1-0.4-0.2-0.4-0.4c-0.2,0-0.3-0.1-0.4-0.2
			c-0.1-0.1-0.1-0.3-0.1-0.4c0,0,0.1,0.1,0.1,0.1c0.1,0,0.2,0,0.2,0c0-0.1,0-0.2,0.1-0.3c0.1-0.1,0.2-0.1,0.3-0.1c0.1,0,0.1,0,0.2,0
			c0.1,0,0.1,0.1,0.2,0c0.3-0.1,0.2-0.3,0-0.4c-0.2,0-0.1,0-0.2,0.1c-0.1,0-0.1,0-0.2,0c-0.2,0-0.4-0.1-0.5-0.2
			c-0.1-0.1-0.2-0.3-0.2-0.5c0-0.2,0-0.3,0.1-0.4c0-0.1,0.1-0.1,0.1-0.2c0-0.1-0.1-0.1-0.2-0.2c-0.1-0.1-0.2-0.1-0.3-0.1
			c0.1-0.1,0.3-0.2,0.4-0.2c0.2,0,0.3,0.1,0.5,0.2c0.3-0.1,0.6,0,0.8,0.2c0.1,0.1,0.1,0.2,0.2,0.3c0-0.2,0-0.4-0.2-0.5
			c-0.1-0.1-0.3-0.2-0.5-0.2c0-0.1,0.1-0.1,0.1-0.2c0,0,0.1-0.1,0.1-0.1c0-0.1,0-0.1-0.1-0.2c-0.1-0.1-0.2-0.2-0.3-0.2
			c0.1-0.1,0.2-0.2,0.4-0.2c0.3,0,0.5,0.2,0.5,0.4c0.4,0.1,0.6,0.5,0.5,0.9c0.1-0.1,0.2-0.2,0.2-0.4c0-0.1,0-0.2-0.1-0.3
			c0.1-0.1,0.1-0.2,0.1-0.3c0-0.1,0-0.3-0.1-0.4c0.2,0,0.4,0.2,0.5,0.4c0.1,0.1,0.1,0.3,0.1,0.4c0.2,0.2,0.3,0.4,0.3,0.7
			c0,0.3-0.1,0.4-0.2,0.6c-0.1,0.2-0.2,0.3-0.2,0.5c-0.1,0.4,0.3,0.6,0.5,0.9c0.2,0.2,0.4,0.4,0.7,0.6c0.3,0.2,0.5,0.4,0.8,0.5
			c0,0.1-0.1,0.1-0.1,0.2c0,0.1,0,0.1,0.1,0.2c0.1-0.2,0.2-0.4,0.3-0.6c0.2-0.3,0.4-0.4,0.6-0.7c0-0.1,0.1-0.1,0.1-0.2
			c0-0.1,0-0.1,0-0.2c0-0.1,0-0.1-0.1-0.2c0,0,0,0.1,0,0.1c0,0,0,0.1-0.1,0.1L15,33c-0.1-0.3-0.1-0.7,0-1c0.1-0.3,0.2-0.5,0.3-0.7
			c-0.1-0.2-0.1-0.5-0.1-0.7c0-0.2,0-0.4,0.1-0.6c0,0.2,0.1,0.3,0.2,0.4l0.2,0.1c0.1,0,0.2,0.1,0.2,0.2c0,0.1,0,0.1,0,0.2
			c0,0.1,0,0.2-0.1,0.3c0.1-0.1,0.2-0.2,0.3-0.3c0.1-0.1,0.1-0.2,0.1-0.3c0-0.1,0-0.2,0-0.2c0-0.1-0.1-0.1-0.2-0.2
			c-0.1,0-0.2,0-0.3,0c-0.1,0-0.2-0.1-0.2-0.1c-0.1-0.1-0.2-0.2-0.2-0.3c0.2,0,0.4,0,0.5,0c0.1,0,0.2,0,0.3,0.1
			c0.1-0.2,0.3-0.3,0.5-0.3c0.1,0,0.2,0,0.4,0c0.1-0.1,0.3-0.2,0.5-0.3c0.4,0,0.7,0,1.1,0c0.2,0,0.4,0.1,0.5,0.3c0.1,0,0.2,0,0.4,0
			c0.2,0,0.4,0.2,0.5,0.3c0.1,0,0.2-0.1,0.3-0.1c0.2,0,0.4,0,0.5,0c0,0.1-0.1,0.2-0.2,0.3c-0.1,0.1-0.1,0.1-0.2,0.1
			c-0.1,0-0.2,0-0.3,0c-0.1,0-0.1,0.1-0.2,0.2c0,0.1,0,0.2,0,0.2c0,0.1,0.1,0.2,0.1,0.3c0.1,0.1,0.2,0.2,0.3,0.3
			c-0.1-0.1-0.1-0.2-0.1-0.3c0-0.1,0-0.1,0-0.2c0-0.1,0.1-0.2,0.2-0.2c0.1,0,0.1-0.1,0.2-0.1c0.1-0.1,0.2-0.2,0.2-0.4
			c0.1,0.2,0.1,0.4,0.1,0.6c0,0.2,0,0.5-0.1,0.7c0.2,0.2,0.3,0.5,0.3,0.7c0.1,0.3,0.1,0.7,0,1l-0.6-0.6c0,0,0,0-0.1-0.1
			c0,0,0-0.1,0-0.1c0,0-0.1,0.1-0.1,0.2c0,0.1,0,0.1,0,0.2c0,0.1,0.1,0.1,0.1,0.2c0.2,0.3,0.4,0.4,0.6,0.7c0.1,0.2,0.2,0.4,0.3,0.6
			c0-0.1,0-0.2,0-0.3c0-0.2-0.1-0.4-0.2-0.5c0.8,0.3,1.7,0.4,2.6,0.3c0.8,0,1.7-0.2,2.5-0.4c0.8-0.2,1.1-0.3,1.9-0.5
			c0.5-0.1,1-0.2,1.4-0.2c0.6,0,1.1,0,1.7,0.1c0.3,0,0.5,0.1,0.8,0.2c0.2,0.1,0.4,0.1,0.7,0.1c0.3,0,0.7-0.2,0.6-0.6
			c0-0.2-0.2-0.4-0.5-0.4c-0.2,0-0.4,0.2-0.5,0.4c0,0.1,0,0.2,0.1,0.2c-0.2,0-0.4,0-0.6-0.2C32,32.1,32,32,32,31.8
			c0-0.2,0.2-0.3,0.3-0.4c-0.3,0-0.5,0.2-0.6,0.4c0,0.1,0,0.2,0,0.3c-0.1,0-0.1,0.1-0.2,0.1c-0.2,0-0.3-0.1-0.3-0.2
			c-0.1-0.2,0-0.3,0.1-0.4c0.1-0.1,0.2-0.2,0.3-0.2c-0.3,0-0.5,0.1-0.7,0.4c-0.1,0.1-0.1,0.3-0.1,0.4c-0.2,0-0.5,0-0.7,0
			c-0.3,0-0.5,0.1-0.8,0.1c0.3-0.3,0.6-0.6,0.9-0.9c0.2-0.2,0.5-0.3,0.8-0.5c-0.1-0.2-0.1-0.5,0.1-0.7c0.1-0.2,0.3-0.3,0.5-0.4
			c0.3-0.1,0.6-0.1,0.9,0c-0.1,0-0.2,0.2-0.3,0.3c-0.1,0.1-0.1,0.3,0,0.5c0.1,0.2,0.4,0.2,0.7,0.3c0.3,0.1,0.5,0.1,0.8,0.3
			c0.3,0.1,0.5,0.3,0.6,0.5c0.2,0.2,0.3,0.5,0.3,0.8c0,0.3-0.1,0.6-0.2,0.8c-0.2,0.3-0.6,0.5-0.9,0.6c-0.2,0.1-0.4,0.1-0.7,0.1
			c0,0,0.2,0.3,0.3,0.5l0.2,0.2c0,0,0,0.1,0.1,0.1c0.1,0,0.1,0,0.2,0h0.6c0.1,0,0.2,0,0.2,0.1c0.1,0,0.1,0.1,0.2,0.1l0.4,0.5
			l-0.2-0.1c-0.1,0-0.2,0-0.3,0h-0.7h-0.1l0.1,0.2c0,0.1,0.1,0.1,0.1,0.1c0.1,0,0.1,0,0.2,0L34.2,35.9z"/>
	</defs>
	<clipPath id="SVGID_10_">
		<use xlink:href="#SVGID_9_"  style="overflow:visible;"/>
	</clipPath>
	<rect x="4.6" y="24" class="st6" width="37" height="22"/>
</g>
<g>
	<defs>
		<path id="SVGID_11_" d="M26.4,37.8c-0.1-0.2-0.1-0.4,0-0.6c0.1-0.2,0.3-0.4,0.5-0.5c0.2-0.1,0.3-0.2,0.5-0.2c0.2,0,0.3,0,0.4-0.1
			c0.2,0,0.3-0.1,0.5-0.2c-0.1,0.1-0.3,0.2-0.4,0.3c-0.3,0.2-0.5,0.2-0.8,0.4C26.8,37.1,26.5,37.4,26.4,37.8 M29.3,35.3
			c0.1,0.1,0.2,0.2,0.2,0.3c0.1,0.1,0.1,0.3,0.1,0.5c-0.3,0.2-0.4,0.3-0.7,0.5c-0.2,0.1-0.3,0.2-0.5,0.4c-0.1,0.1-0.2,0.2-0.2,0.3
			c0,0.1,0,0.2,0,0.3v0.2c0,0.1,0,0.1,0,0.2c0,0.1-0.1,0.1-0.1,0.2l-0.3,0.3c0-0.1,0-0.1,0-0.2c0-0.1,0-0.1,0-0.2l-0.2-0.5
			c0,0,0-0.1,0-0.1c0,0,0-0.1,0-0.1l-0.2,0.2c0,0-0.1,0.1-0.1,0.2c0,0.1,0,0.1,0,0.2l0.2,0.6c0,0.1,0,0.1,0,0.2
			c0,0.1-0.1,0.2-0.1,0.2l-0.4,0.4c0-0.1,0-0.1,0-0.2c0-0.1,0-0.1,0-0.2l-0.2-0.5c0,0,0-0.1,0-0.1c0,0,0-0.1,0-0.1l-0.2,0.2
			c-0.1,0-0.1,0.1-0.1,0.2c0,0.1,0,0.1,0,0.2l0.2,0.6c0,0.1,0,0.1,0,0.2c0,0.1-0.1,0.2-0.1,0.2l-0.4,0.4c0-0.1,0-0.1,0-0.2
			c0-0.1,0-0.1,0-0.2l-0.1-0.3c-0.1,0.1-0.2,0.2-0.3,0.3c-0.1,0.1-0.3,0.2-0.4,0.3c0,0.3-0.2,0.5-0.5,0.6c-0.2,0.1-0.4,0.1-0.6,0.1
			c0.1-0.1,0.1-0.1,0.1-0.2c0-0.1,0-0.2-0.1-0.3c-0.1-0.1-0.1-0.1-0.2-0.1c0,0,0.1,0.1,0.1,0.1c0,0,0,0.1,0,0.1
			c0,0.2-0.1,0.3-0.2,0.4c-0.1,0.1-0.3,0.2-0.5,0.2h-0.3c-0.1,0-0.2,0-0.3,0c-0.1,0-0.2,0-0.3,0.1c-0.1,0.1-0.2,0.2-0.3,0.3
			c0-0.1-0.1-0.3-0.1-0.4c0-0.2,0.1-0.5,0.2-0.6c0.1-0.1,0.2-0.2,0.4-0.2c-0.2,0-0.5,0.1-0.6,0.3c-0.1,0.1-0.2,0.3-0.2,0.4
			c-0.1,0-0.2,0.1-0.4,0.1c-0.2,0.1-0.3,0.2-0.4,0.3c-0.1-0.1-0.1-0.3-0.1-0.4c0-0.1,0.1-0.2,0.2-0.3c0.1,0,0.1-0.1,0.2-0.1
			c0.1-0.2,0.2-0.3,0.3-0.5c0.1-0.1,0.2-0.2,0.4-0.2c-0.2,0-0.3,0-0.5,0.1c-0.1,0.1-0.2,0.1-0.2,0.2c-0.1,0.1-0.2,0.2-0.2,0.3
			c-0.1,0-0.3,0.1-0.4,0.1c-0.1,0.1-0.2,0.1-0.3,0.2c-0.1-0.1-0.1-0.2-0.1-0.3c0-0.1,0.1-0.2,0.2-0.3c0.1-0.1,0.2-0.2,0.3-0.2
			c0-0.2,0.1-0.4,0.2-0.5c0.1-0.2,0.3-0.3,0.5-0.4c0.1-0.1,0.3-0.1,0.5-0.1c0.2,0,0.5,0.1,0.7,0.1c0.2,0.1,0.4,0.1,0.6,0.1
			c0.2,0,0.5-0.1,0.6-0.2c0.2-0.1,0.3-0.3,0.4-0.5c0.1,0,0.1-0.1,0.2-0.1c0.1,0,0.2-0.1,0.3-0.1c-0.2,0-0.4,0-0.7,0L24,38.1l0.2-0.2
			c0.2-0.3,0.4-0.6,0.5-0.9c0.2-0.4,0.5-0.7,1-0.9c0.2-0.1,0.5-0.1,0.7-0.1c0.2,0,0.5,0,0.7-0.1c0.2,0,0.3,0,0.4-0.1
			c0.1-0.1,0.1-0.1,0.1-0.2c0-0.1,0-0.2,0-0.2l0.2-0.1c0.1,0,0.2-0.1,0.3-0.1c0.2-0.1,0.5-0.1,0.7,0c0.1,0,0.2,0,0.2,0.1
			C29.1,35.1,29.2,35.2,29.3,35.3"/>
	</defs>
	<clipPath id="SVGID_12_">
		<use xlink:href="#SVGID_11_"  style="overflow:visible;"/>
	</clipPath>
	<rect x="15.6" y="30" class="st7" width="19" height="16"/>
</g>
<g>
	<defs>
		<path id="SVGID_13_" d="M27,18c-0.3,0.1-0.5,0.2-0.8,0.3c-0.7,0-1.5,0-2.2-0.2c-0.4,0-0.9,0-1.3,0.2c-0.4,0.1-0.8,0.4-0.9,0.7
			c-0.2,0.3-0.2,0.7,0,1c0.1,0.3,0.4,0.5,0.7,0.7c0.4,0.2,0.8,0.3,1.3,0.3c0.6,0,1.3,0,1.9-0.2c0.7-0.1,1-0.3,1.7-0.4l1.8-0.4
			c0.2-0.2,0.5-0.4,0.7-0.6c0.2-0.2,0.5-0.3,0.8-0.4v-0.1c0,0,0-0.1,0-0.1c-0.7,0.2-1.1,0.2-1.8,0.4c-0.7,0.2-1.1,0.3-1.9,0.5
			c-0.7,0.2-1.1,0.3-1.9,0.5c-0.3,0.1-0.6,0.1-1,0.1c-0.3,0-0.5,0-0.8-0.1c-0.2-0.1-0.4-0.2-0.5-0.5c-0.1-0.1-0.1-0.2,0-0.3
			c0.1-0.1,0.1-0.1,0.2-0.1c0.1,0,0.3,0.1,0.3,0.2c0,0.1,0,0.2-0.1,0.3h0.3c0.2,0,0.3,0,0.5-0.1c0.1-0.1,0.2-0.2,0.2-0.3
			c0-0.2-0.1-0.3-0.2-0.4c-0.1-0.1-0.2-0.1-0.3-0.1c0.2-0.1,0.5,0,0.7,0.2c0.1,0.1,0.1,0.3,0.1,0.4c0.3,0,0.6,0,0.9-0.1
			c0.3-0.1,0.6-0.3,0.9-0.5C26.6,18.6,26.9,18.3,27,18"/>
	</defs>
	<clipPath id="SVGID_14_">
		<use xlink:href="#SVGID_13_"  style="overflow:visible;"/>
	</clipPath>
	<rect x="16.6" y="13" class="st8" width="19" height="13"/>
</g>
<g>
	<defs>
		<path id="SVGID_15_" d="M17.9,23c0.1,0,0.2,0,0.2,0c0.1,0,0.6,0,0.5,0.3c-0.1,0.3-0.2,0.2-0.3,0.2c-0.1,0-0.1,0-0.2,0
			c-0.1,0-0.1,0-0.2,0c-0.1,0-0.2,0-0.3-0.2C17.6,23.1,17.8,23.1,17.9,23"/>
	</defs>
	<clipPath id="SVGID_16_">
		<use xlink:href="#SVGID_15_"  style="overflow:visible;"/>
	</clipPath>
	<rect x="12.6" y="18" class="st9" width="11" height="10.5"/>
</g>
<g>
	<defs>
		<path id="SVGID_17_" d="M18.6,22.1c0,0.2,0,0.5-0.1,0.7c-0.1,0-0.3,0-0.4,0c-0.1,0-0.3,0-0.4,0c0-0.3-0.1-0.5,0-0.8l0.2,0.3
			c0,0,0.1-0.3,0.1-0.3c0,0,0.1,0,0.1,0c0,0,0.1,0,0.1,0c0,0,0.1,0.2,0.1,0.2v0.1L18.6,22.1L18.6,22.1z"/>
	</defs>
	<clipPath id="SVGID_18_">
		<use xlink:href="#SVGID_17_"  style="overflow:visible;"/>
	</clipPath>
	<rect x="12.6" y="17" class="st10" width="11" height="10.8"/>
</g>
<g>
	<defs>
		<path id="SVGID_19_" d="M31.5,24.7c0.2,0.3,0.5,0.4,0.8,0.4h0.9c0-0.1-0.1-0.1-0.1-0.2c-0.1-0.1-0.3-0.2-0.4-0.2
			c-0.2,0-0.4,0-0.7,0c-0.3,0-0.5-0.1-0.7-0.2C31.4,24.6,31.4,24.7,31.5,24.7L31.5,24.7z M19.8,22c-0.1,0.1-0.1,0.1-0.1,0.2
			c0,0.1,0,0.1-0.1,0.2c0,0.1,0,0.2,0.1,0.2c0,0.1,0.1,0.1,0.1,0.2c0,0.1,0.1,0.1,0.1,0.2c0,0.1,0,0.2,0,0.2c0-0.1,0.1-0.1,0.1-0.2
			c0.1-0.1,0.1-0.2,0.1-0.3c0-0.1,0-0.2-0.1-0.3c0-0.1-0.1-0.1-0.1-0.2c0-0.1-0.1-0.1-0.1-0.2C19.8,22.1,19.8,22,19.8,22L19.8,22z
			 M20.2,22c0,0.1,0.1,0.1,0.1,0.2c0,0.1,0,0.1,0.1,0.2c0-0.1,0-0.2,0-0.2c0-0.1,0-0.1,0-0.2c0-0.1,0-0.2-0.1-0.3L20,21.2
			c0,0-0.1-0.1-0.1-0.2c0,0,0-0.1,0-0.1c-0.1,0-0.1,0.1-0.1,0.1c-0.1,0.1-0.1,0.2-0.1,0.3c0,0.1,0,0.2,0.1,0.2l0.2,0.3
			C20.1,21.9,20.1,21.9,20.2,22L20.2,22z M16.1,22c0,0.1,0.1,0.1,0.1,0.2c0,0.1,0,0.2,0,0.2c0,0.1,0,0.2-0.1,0.2
			c0,0.1-0.1,0.1-0.1,0.2C16,22.9,16,23,15.9,23c0,0.1,0,0.2,0,0.2c0-0.1-0.1-0.1-0.1-0.2c-0.1-0.1-0.1-0.2-0.1-0.3
			c0-0.1,0-0.2,0.1-0.3c0-0.1,0.1-0.1,0.1-0.2c0-0.1,0.1-0.1,0.1-0.2C16.1,22.1,16.1,22,16.1,22L16.1,22z M15.7,22
			c0,0.1-0.1,0.1-0.1,0.2l-0.1,0.2c0-0.1,0-0.2,0-0.2c0-0.1,0-0.1-0.1-0.2c0-0.1,0-0.2,0.1-0.3l0.3-0.3c0,0,0.1-0.1,0.1-0.2
			c0,0,0-0.1,0-0.1c0.1,0,0.1,0.1,0.1,0.1c0.1,0.1,0.1,0.2,0.1,0.3c0,0.1,0,0.2-0.1,0.2l-0.2,0.3L15.7,22L15.7,22z M18.6,19.8
			c0,0-0.1,0.1-0.1,0.2c0,0.1,0.1,0.2,0.2,0.2c0.1,0,0.1,0,0.2-0.1c0,0,0.1-0.1,0.1-0.2c0-0.1,0-0.2-0.1-0.2h0.3
			c0.1,0,0.2-0.1,0.2-0.1c0.1-0.1,0.1-0.1,0.1-0.2c-0.1,0.1-0.2,0.1-0.3,0.1h-0.9c-0.1,0-0.1,0.1-0.1,0.1c0,0,0,0.1,0,0.1v0.1
			c0.1,0,0.1-0.1,0.1-0.1L18.6,19.8L18.6,19.8z M17,19.8c0,0-0.1,0.1-0.1,0.2c0,0.1,0.1,0.2,0.2,0.2c0.1,0,0.1,0,0.2-0.1
			c0,0,0.1-0.1,0.1-0.2c0-0.1,0-0.2-0.1-0.2h0.3c0.1,0,0.1,0,0.1,0.1v-0.1c0-0.1,0-0.1,0-0.2c0,0-0.1-0.1-0.1-0.1h-0.9
			c-0.1,0-0.2,0-0.3-0.1c0,0.1,0,0.2,0.1,0.2c0.1,0.1,0.1,0.1,0.2,0.1L17,19.8L17,19.8z M18.8,22.5c0-0.3,0-0.5,0-0.8
			c0.3-0.1,0.5-0.3,0.5-0.6c0.6-0.1,1-0.6,0.9-1.2c0-0.2-0.1-0.3-0.3-0.4V20c0,0.2,0,0.4-0.2,0.6c-0.1,0.2-0.4,0.3-0.6,0.3h-0.1
			c0.1,0.8-1.1,0.9-1,0.2c0.2-0.1,0.3-0.2,0.3-0.3h-0.8c0,0.2,0.1,0.3,0.3,0.3c0.1,0.7-1.1,0.6-1-0.2h-0.1c-0.2,0-0.4-0.1-0.6-0.3
			C16,20.4,16,20.2,16,20v-0.5c-0.1,0.1-0.2,0.3-0.3,0.4c-0.1,0.6,0.3,1.1,0.9,1.2c0,0.3,0.2,0.5,0.5,0.6c0,0.3,0,0.5,0,0.8
			c-0.1,0.2-0.1,0.3-0.1,0.5c0,0.1,0,0.3,0.2,0.3c0.3,0.2,0.4,0.1,0.8,0.1c0.1,0,0.2,0,0.3,0c0.1,0,0.3,0,0.4-0.1
			c0.1-0.1,0.2-0.2,0.2-0.4C18.9,22.9,18.9,22.7,18.8,22.5L18.8,22.5z M18.2,25.1c-0.1,0-0.2,0-0.3-0.1c-0.1,0-0.2-0.1-0.3-0.1
			c0,0-0.1-0.1-0.1-0.1c0,0-0.1-0.1-0.1-0.1c-0.1,0-0.1,0-0.2-0.1c-0.1,0-0.1-0.1-0.2-0.1c-0.1,0-0.1-0.1-0.1-0.2c0-0.1,0-0.1,0-0.2
			c-0.1-0.1-0.2-0.1-0.2-0.2c-0.1-0.1-0.1-0.1-0.2-0.2c0-0.1-0.1-0.1-0.1-0.2c0,0,0-0.1,0-0.1c0-0.1,0-0.1,0-0.2l0.1-0.2
			c0,0,0-0.1,0-0.1c0,0,0-0.1,0-0.1l0.2,0.2c0,0,0,0.1,0,0.1c0,0,0,0.1,0,0.1c0,0-0.1,0.1-0.1,0.1c0,0,0,0.1,0,0.1l0.2,0.2
			c0,0,0.1,0,0.1,0c0.1,0,0.1-0.1,0.1-0.1c0,0,0-0.1,0-0.1l0.1,0.2c0,0,0,0.1,0,0.1c0,0,0,0.1,0,0.1L17.1,24c0,0,0,0.1,0,0.1
			c0,0,0,0.1,0.1,0.1c0,0,0.1,0.1,0.1,0.1c0,0,0.1,0,0.1,0c0,0,0,0,0.1-0.1V24c0,0,0,0,0-0.1c0,0,0-0.1,0-0.1l0.2,0.1
			c0.1,0,0.1,0.1,0.1,0.1c0,0,0,0.1,0,0.1v0.2c0,0,0,0.1,0,0.1c0,0,0.1,0.1,0.1,0.1c0.1,0,0.1,0.1,0.2,0.1v-0.6h0.2v0.6
			c0.1,0,0.1,0,0.2-0.1c0.1,0,0.1-0.1,0.1-0.1c0,0,0-0.1,0-0.1v-0.2c0,0,0-0.1,0-0.1c0,0,0-0.1,0.1-0.1l0.2-0.1c0,0,0,0.1,0,0.1
			c0,0,0,0,0,0.1v0.2c0,0,0,0.1,0.1,0.1c0.1,0,0,0,0.1,0c0,0,0.1,0,0.1-0.1c0,0,0-0.1,0.1-0.1c0,0,0-0.1,0-0.1l-0.1-0.2
			c0,0,0-0.1,0-0.1c0,0,0-0.1,0-0.1l0.1-0.2c0,0,0,0.1,0,0.1c0,0,0,0.1,0.1,0.1c0,0,0.1,0,0.1,0l0.2-0.2c0,0,0-0.1,0-0.1
			c0-0.1,0-0.1-0.1-0.1c-0.1-0.1,0-0.1,0-0.1c0,0,0-0.1,0-0.1l0.2-0.2c0,0,0,0.1,0,0.1c0,0,0,0.1,0,0.1l0.1,0.2c0,0.1,0,0.1,0,0.2
			c0,0,0,0.1,0,0.1c0,0.1-0.1,0.1-0.1,0.2c-0.1,0.1-0.1,0.1-0.2,0.2c-0.1,0.1-0.1,0.1-0.2,0.2c0,0.1,0,0.1,0,0.2
			c0,0.1-0.1,0.1-0.1,0.2c0,0.1-0.1,0.1-0.2,0.1c-0.1,0-0.1,0.1-0.2,0.1c0,0.1,0,0.1-0.1,0.1c0,0-0.1,0.1-0.1,0.1
			c-0.1,0.1-0.2,0.1-0.3,0.1c-0.1,0-0.2,0.1-0.3,0.1H18.2z M18.6,18.2h0.3c0,0,0.1,0,0.1,0c0,0,0.1,0,0.1,0.1l0.3,0.4l0.1,0.1
			c0,0,0.1,0,0.1,0h-0.3c-0.1,0-0.1,0-0.2,0c-0.1,0-0.1-0.1-0.1-0.1l-0.2-0.3C18.7,18.3,18.7,18.2,18.6,18.2L18.6,18.2L18.6,18.2z
			 M17.1,18.2h0.3c0.1,0,0.2,0.1,0.2,0.1l0.3,0.4c0,0,0,0,0,0.1c0,0,0.1,0,0.1,0h-0.3c-0.1,0-0.1,0-0.2,0c-0.1,0-0.1-0.1-0.1-0.1
			l-0.2-0.3L17.1,18.2C17.1,18.2,17,18.2,17.1,18.2L17.1,18.2z M17.7,18h0.3c0.1,0,0.1,0,0.2,0.1c0.1,0,0.1,0.1,0.1,0.1l0.4,0.5
			l0.1,0.1c0,0,0.1,0.1,0.1,0.1h-0.3c-0.1,0-0.1,0-0.2-0.1c0,0-0.1-0.1-0.1-0.1L18,18.3l-0.1-0.1C17.9,18.1,17.8,18.1,17.7,18z
			 M34.2,23.9h0.7c0.2,0,0.3,0.1,0.4,0.2l0.4,0.5l-0.2-0.1c-0.1,0-0.2,0-0.3,0h-0.6h-0.1h-0.1l0.1,0.2c0,0.1,0.1,0.1,0.1,0.1
			c0.1,0,0.1,0,0.2,0h0.7c0.1,0,0.2,0,0.2,0.1c0.1,0,0.1,0.1,0.2,0.1l0.4,0.5l-0.2-0.1c-0.1,0-0.2,0-0.3,0h-0.7c0,0-0.1,0-0.1,0
			l0.2,0.2c0.1,0.1,0.2,0.1,0.3,0.1h0.3c0.1,0,0.3,0,0.4,0.1c0.1,0,0.2,0.1,0.3,0.2c0.1,0.1,0.1,0.2,0.1,0.3c0,0.1,0,0.2,0,0.4
			c0-0.1-0.1-0.2-0.2-0.2c-0.1,0-0.1,0-0.2,0h-0.4c0.1,0.1,0.1,0.3,0.1,0.4c0,0.2,0,0.3-0.1,0.5c0.2,0.1,0.3,0.4,0.2,0.6
			c0,0.2-0.1,0.3-0.2,0.4c-0.2,0.1-0.4,0.2-0.6,0.2c-0.1,0-0.2,0-0.4,0c-0.1,0-0.1,0.1-0.2,0.1c-0.1,0.1-0.1,0.2-0.2,0.3
			c-0.1-0.1-0.1-0.1-0.2-0.2c0-0.1,0-0.2,0-0.2c-0.1-0.1-0.2-0.2-0.3-0.4c0-0.1,0-0.3,0.1-0.4c0.1-0.1,0.2-0.2,0.4-0.2
			c-0.3,0-0.5,0.1-0.6,0.3c-0.2,0.2-0.1,0.4,0,0.7h-0.2c-0.1,0-0.2,0-0.3,0l-0.2,0.1c-0.2,0.1-0.4,0.2-0.5,0.4
			c-0.1-0.1-0.1-0.2-0.1-0.3c0-0.1,0-0.2,0.1-0.3c0-0.3,0.1-0.5,0.3-0.7c0.1-0.1,0.3-0.3,0.4-0.3c-0.1,0-0.3,0-0.4,0.1
			c-0.3,0.1-0.5,0.4-0.5,0.7c-0.1,0-0.2,0.1-0.4,0.1c-0.1,0.1-0.2,0.2-0.3,0.3c-0.1-0.2-0.1-0.4,0-0.6c0-0.1,0.1-0.2,0.2-0.2
			c0-0.1,0-0.3,0.1-0.4c0.1-0.2,0.2-0.4,0.4-0.5c0.2-0.1,0.3-0.1,0.5-0.1c0.3,0,0.4,0.1,0.7,0c0.1,0,0.2,0,0.3-0.1
			c0.1-0.1,0.1-0.2,0.1-0.4c0-0.1,0-0.2-0.1-0.3h-0.7c-0.1,0.2-0.3,0.3-0.5,0.4c-0.1,0.1-0.3,0.1-0.4,0.1c0-0.1,0-0.2,0-0.2
			c-0.1-0.1-0.1-0.2-0.3-0.3c-0.2-0.1-0.3-0.2-0.5-0.3c-0.2-0.1-0.4-0.3-0.6-0.4c-0.3-0.4-0.4-0.9-0.4-1.4c0-0.2,0-0.3,0-0.5
			c0-0.2-0.1-0.3-0.2-0.4c-0.1-0.1-0.2-0.2-0.3-0.3c-0.3-0.2-0.6-0.2-0.9-0.2c-0.5,0.1-1,0.2-1.5,0.5c-1,0.4-1.5,0.8-2.5,1.3
			c-0.7,0.3-1,0.4-1.8,0.8c-0.2,0.1-0.3,0.3-0.3,0.5c0,0.1,0.1,0.1,0.1,0.2c0.1,0,0.1,0,0.2,0l-0.5,0.2c-0.1,0-0.2,0-0.2,0
			c-0.1,0-0.2,0-0.2-0.1l-0.6-0.3l-0.2-0.1c-0.1,0-0.2,0-0.3,0c-0.1,0-0.2,0-0.3,0h0.1h0.1l0.8,0.4c0.1,0,0.1,0.1,0.2,0.1
			c0.1,0,0.1,0,0.2,0L22.1,26c-0.1,0-0.2,0-0.2,0c-0.1,0-0.2,0-0.2-0.1l-1-0.6c0.1-0.1,0.1-0.2,0.1-0.3c0-0.1,0-0.2,0-0.3
			c0.1-0.1,0.3-0.3,0.4-0.4c0.1-0.1,0.1-0.2,0.1-0.3c0-0.1,0-0.2,0-0.3l0.1-0.1c0.1-0.1,0.1-0.1,0.2-0.2c0.1-0.1,0.1-0.3,0.1-0.5
			c0-0.1,0-0.2,0-0.3c0-0.1-0.1-0.2-0.1-0.2c0-0.1-0.1-0.1-0.2-0.2c0,0-0.1,0-0.1-0.1c0,0-0.1-0.1-0.1-0.1l-0.1,0.2c0,0,0,0.1,0,0.1
			c0,0.1,0,0.1,0.1,0.1c0.1,0,0.1,0.1,0.1,0.2c0.1,0.1,0.1,0.2,0.1,0.3c0,0.1,0,0.2,0,0.3c0,0-0.1,0.1-0.1,0.1
			c0,0.1-0.1,0.1-0.1,0.1l-0.1-0.2L21,23.2c0,0,0-0.1,0-0.1c0,0,0-0.1,0-0.1l-0.2,0.2c-0.1,0.1-0.1,0.2,0,0.3l0.2,0.3
			c0,0.1,0,0.1,0,0.2c0,0.1,0,0.1,0,0.2c0,0.1-0.1,0.2-0.1,0.2c0,0.1-0.1,0.1-0.2,0.2c0-0.2-0.1-0.2-0.1-0.4c0-0.1-0.1-0.1-0.1-0.2
			c0,0,0-0.1,0-0.1c0-0.1,0-0.1,0-0.2l-0.2,0.2c0,0,0,0.1,0,0.1c0,0.1,0,0.1,0,0.2c0,0.2,0.1,0.3,0.2,0.5c0,0.2,0,0.3,0,0.5
			c0,0.1,0,0.2-0.1,0.2c0,0,0,0.1-0.1,0.1l0.1,0h0.1l0.8,0.4c0.1,0,0.1,0.1,0.2,0.1c0.1,0,0.1,0,0.2,0l-0.4,0.2c-0.1,0-0.2,0-0.2,0
			c-0.1,0.1-0.2,0.2-0.3,0.2L19.9,26c0-0.1,0-0.2,0.1-0.3c0-0.1,0-0.2,0-0.2c0-0.1,0-0.2,0-0.3c0-0.1-0.1-0.2-0.1-0.3
			c0,0,0-0.1,0-0.1c0-0.1,0-0.1,0-0.2l-0.2,0.2c-0.1,0,0,0.1-0.1,0.2c0,0,0,0.1,0,0.1l0.1,0.4c0,0.1,0,0.2,0,0.3
			c0,0.1,0,0.3-0.1,0.4c0,0,0.1,0,0.1,0l0.8,0.4c0.1,0,0.1,0.1,0.2,0.1c0.1,0,0.1,0,0.2,0l-0.4,0.2c-0.1,0-0.2,0-0.2,0
			c-0.1,0-0.2,0-0.2-0.1l-0.8-0.4c0.1-0.1,0.1-0.3,0.1-0.5c0-0.1,0-0.2,0-0.2c0-0.1,0-0.1-0.1-0.2c0-0.1,0-0.1,0-0.2
			c0,0,0-0.1,0-0.1l-0.2,0.1c0,0-0.1,0.1-0.1,0.1c0,0.1,0,0.1,0,0.2c0,0.1,0,0.1,0,0.2c0,0.1,0.1,0.2,0.1,0.3c0,0.1,0,0.2,0,0.3
			c-0.1,0.1-0.2,0.3-0.3,0.3l0.8,0.4c0.1,0,0.1,0.1,0.2,0.1c0.1,0,0.1,0,0.2,0l-0.3,0.1c-0.1,0-0.2,0.1-0.3,0.1c-0.1,0-0.2,0-0.3,0
			l-0.4-0.2c-0.1,0-0.1-0.1-0.1-0.1c0,0-0.1-0.1-0.1-0.1v-1.2h-0.3v1.1c-0.1,0-0.3-0.1-0.4-0.2c-0.1-0.1-0.1-0.2-0.2-0.2
			c0-0.1,0-0.2,0-0.3c0-0.1,0-0.2,0.1-0.3c0-0.1,0-0.1,0-0.2c0-0.1,0-0.1,0-0.2c0,0,0-0.1-0.1-0.1l-0.2-0.1c0,0,0,0.1,0,0.1
			c0,0.1,0,0.1,0,0.2c0,0.1-0.1,0.1-0.1,0.2c0,0.1,0,0.2,0,0.2c0,0.1,0,0.2,0,0.3c0,0.1,0.1,0.2,0.2,0.3l-0.6,1
			c-0.1,0.1-0.1,0.1-0.2,0.2c-0.1,0-0.2,0.1-0.2,0.1H16l0.2-0.1c0.1-0.1,0.1-0.1,0.2-0.2l0.4-0.6l0.1-0.1c0,0,0.1-0.1,0.1-0.1h-0.3
			c-0.1,0-0.1,0-0.2,0.1c-0.1,0-0.1,0.1-0.2,0.2l-0.4,0.6c-0.1,0.1-0.1,0.1-0.2,0.2c-0.1,0-0.2,0.1-0.2,0.1H15l0.2-0.1
			c0.1-0.1,0.1-0.1,0.2-0.2l0.4-0.6c0,0,0-0.1,0.1-0.1c0,0,0.1-0.1,0.1-0.1h-0.2c-0.2,0-0.3,0.1-0.4,0.3L15.2,27l-0.4,0.5
			c0,0.1-0.1,0.1-0.2,0.2c-0.1,0-0.1,0.1-0.2,0.1c0,0,0.1-0.1,0.1-0.2c0-0.1,0-0.2-0.1-0.3c-0.1-0.1-0.2-0.1-0.3-0.1
			c-0.1,0-0.2,0-0.2,0.1c-0.1,0.1-0.1,0.2-0.1,0.3c0.1,0.1,0.2,0.2,0.2,0.3c0,0.2-0.1,0.4-0.2,0.5c-0.1,0.1-0.2,0.1-0.3,0.1
			c-0.1,0.1-0.1,0.2-0.2,0.3c-0.1,0.1-0.3,0.2-0.5,0.2c0-0.1,0.1-0.1,0.1-0.2c0-0.1,0-0.1,0-0.2c-0.1,0-0.2,0-0.2-0.1
			c-0.1-0.1-0.2-0.2-0.2-0.3c0-0.2,0-0.4,0.2-0.5c0.1-0.1,0.2-0.1,0.3-0.2c-0.1,0-0.2,0-0.3,0c-0.3,0.1-0.4,0.4-0.4,0.7
			c0,0.1,0,0.2,0.1,0.3c-0.1,0-0.3,0-0.4,0c-0.1,0-0.2,0-0.3,0c-0.2,0-0.3,0.1-0.4,0.2c-0.1,0.1-0.2,0.2-0.3,0.3
			c-0.1-0.2-0.2-0.4-0.1-0.6c0-0.1,0.1-0.2,0.3-0.3c0-0.1,0-0.3,0-0.5c0.1-0.3,0.3-0.4,0.6-0.5c-0.3,0-0.6,0.1-0.7,0.3
			c-0.2,0.2-0.2,0.4-0.2,0.6l-0.1,0.2c-0.1,0-0.1,0-0.2-0.1l-0.1-0.1c-0.1,0-0.2,0-0.3,0.1c-0.1,0.1-0.2,0.2-0.3,0.3
			c-0.1-0.1-0.2-0.2-0.2-0.3c0-0.1,0.1-0.2,0.2-0.3c0-0.1,0.1-0.1,0.2-0.2c0-0.1,0-0.3,0-0.4c0.1-0.2,0.2-0.4,0.4-0.6
			c0.2-0.1,0.5-0.2,0.7-0.2c0.1,0,0.2,0,0.4,0c-0.1-0.1-0.3-0.2-0.4-0.2c-0.2,0-0.4,0-0.5,0.1c0.1-0.1,0.2-0.3,0.3-0.3
			C11,26,11.2,26,11.4,26c0.1,0,0.3,0,0.4,0.1c0.2,0.1,0.4,0.1,0.6,0.1c0.6,0,0.9-0.3,1.5-0.6c0.4-0.2,0.2-0.2,0.9-0.5H16
			c0.1,0.1,0.2,0.2,0.3,0.2c0.1,0,0.1,0.1,0.2,0.1c0,0.1,0,0.1,0.1,0.1c0,0.1,0.1,0.1,0.1,0.2c0.1,0.1,0.1,0.1,0.2,0.1
			c0-0.1-0.1-0.2-0.1-0.3c0-0.1,0-0.2,0-0.2l0.1-0.3c0,0,0-0.1,0-0.1c0-0.1,0-0.1-0.1-0.2l-0.2-0.2c0,0.1,0,0.1,0,0.2
			c0,0,0,0.1,0,0.1l-0.1,0.3c-0.1,0-0.2-0.1-0.2-0.1c-0.1-0.1-0.1-0.1-0.2-0.2c0-0.1,0-0.1,0-0.2l0.1-0.4c0,0,0-0.1,0-0.1
			c0,0,0-0.1,0-0.1l-0.2-0.2c0,0.1,0,0.1,0,0.2c0,0,0,0.1,0,0.1c0,0.1-0.1,0.2-0.1,0.3l-0.1,0.4c-0.1-0.1-0.1-0.1-0.2-0.2
			c-0.1-0.1-0.1-0.1-0.1-0.2c0-0.1,0-0.1,0-0.2c0-0.1,0-0.1,0-0.2l0.2-0.3c0-0.1,0-0.1,0-0.2c0,0,0-0.1,0-0.1L15.7,23
			c0,0,0,0.1,0,0.1c0,0,0,0.1,0,0.1l-0.1,0.2l-0.1,0.2c-0.1,0-0.1-0.1-0.1-0.1c0,0-0.1-0.1-0.1-0.1c0-0.1,0-0.2,0-0.3
			c0-0.1,0-0.2,0.1-0.3c0.1-0.1,0.1-0.1,0.1-0.2c0.1-0.1,0.1-0.1,0.1-0.1c0,0,0-0.1,0-0.1l-0.1-0.2c0,0.1,0,0.1-0.1,0.1
			c0,0-0.1,0-0.1,0.1c-0.1,0.1-0.1,0.1-0.2,0.2c-0.1,0.1-0.1,0.1-0.1,0.2c0,0.1,0,0.2,0,0.3c0,0.2,0,0.3,0.1,0.5
			c0,0.1,0.1,0.2,0.2,0.2c0,0,0.1,0.1,0.1,0.1c0,0.1,0,0.2,0,0.3c0,0.1,0.1,0.2,0.1,0.3c0.1,0.2,0.2,0.3,0.3,0.4h-1.3
			c-0.1,0-0.2,0-0.3-0.1c-0.1,0-0.1-0.1-0.2-0.1l-0.4-0.4l0.2,0.1c0.1,0,0.2,0,0.3,0h0.8h0.1h0.2L15,24.2c-0.1-0.1-0.2-0.1-0.3-0.1
			c-0.1,0-0.2,0-0.3,0h-0.8c-0.1,0-0.2,0-0.3-0.1c-0.1,0-0.1-0.1-0.2-0.1l-0.4-0.4l0.2,0.1c0.1,0,0.2,0,0.3,0h0.9h0.2l-0.2-0.2
			c-0.1-0.1-0.2-0.1-0.3-0.1c-0.1,0-0.2,0-0.3,0h-0.8c-0.1,0-0.2,0-0.3-0.1c-0.1,0-0.2-0.1-0.2-0.1L12,22.7l0.2,0.1
			c0.1,0,0.2,0,0.3,0h0.8h0.1h0.1l-0.2-0.2c-0.1-0.1-0.2-0.1-0.3-0.1c-0.1,0-0.2,0-0.3,0h-0.8c-0.1,0-0.2,0-0.3-0.1
			c-0.1,0-0.1-0.1-0.2-0.1L11.4,22c0.1,0,0.2,0,0.4,0c0.2-0.1,0.3-0.2,0.3-0.4c0-0.1-0.1-0.3-0.2-0.3c-0.1-0.1-0.2-0.1-0.3-0.1
			c-0.1,0-0.1,0.1-0.2,0.1c-0.1,0-0.2,0.1-0.3,0.1c-0.1,0-0.2,0-0.3-0.1c-0.2-0.1-0.4-0.2-0.4-0.4c-0.2,0-0.3-0.1-0.4-0.2
			c-0.1-0.1-0.1-0.3-0.1-0.4c0.1,0.1,0.2,0.1,0.4,0.1c0-0.1,0-0.2,0.1-0.3c0.1-0.1,0.2-0.1,0.3-0.1c0.1,0,0.1,0,0.2,0s0.1,0.1,0.2,0
			c0.3-0.1,0.2-0.3,0-0.4c-0.2,0-0.1,0-0.2,0.1c-0.1,0-0.1,0-0.2,0c-0.2,0-0.4-0.1-0.5-0.2C10,19.4,10,19.2,10,19
			c0-0.2,0-0.3,0.1-0.4c0-0.1,0.1-0.1,0.1-0.2c0-0.1-0.1-0.1-0.2-0.2c-0.1-0.1-0.2-0.1-0.3-0.1c0.1-0.1,0.3-0.2,0.4-0.2
			c0.2,0,0.3,0.1,0.5,0.2c0.3-0.1,0.6,0,0.8,0.2c0.1,0.1,0.1,0.2,0.2,0.3c0-0.2,0-0.4-0.2-0.5c-0.1-0.1-0.3-0.2-0.5-0.2
			c0-0.1,0.1-0.1,0.1-0.2c0,0,0.1-0.1,0.1-0.1c0-0.1,0-0.1-0.1-0.2c-0.1-0.1-0.2-0.2-0.3-0.2c0.1-0.1,0.2-0.2,0.4-0.2
			c0.3,0,0.5,0.2,0.5,0.4c0.4,0.1,0.6,0.5,0.5,0.9c0.1-0.1,0.2-0.2,0.2-0.4c0-0.1,0-0.2-0.1-0.3c0.1-0.1,0.1-0.2,0.1-0.3
			c0-0.1,0-0.3-0.1-0.4c0.2,0,0.4,0.2,0.5,0.4c0.1,0.1,0.1,0.3,0.1,0.4c0.2,0.2,0.3,0.4,0.3,0.7c0,0.3-0.1,0.4-0.2,0.6
			c-0.1,0.2-0.2,0.3-0.2,0.5c-0.1,0.4,0.3,0.6,0.5,0.9c0.2,0.2,0.4,0.4,0.7,0.6c0.3,0.2,0.5,0.4,0.8,0.5c0,0.1-0.1,0.1-0.1,0.2
			c0,0.1,0,0.1,0.1,0.2c0.1-0.2,0.2-0.4,0.3-0.6c0.2-0.3,0.4-0.4,0.6-0.7c0-0.1,0.1-0.1,0.1-0.2c0-0.1,0-0.1,0-0.2
			c0,0.1-0.1,0.1-0.1,0.2c0,0,0,0.1,0,0.1c0,0,0,0.1-0.1,0.1L15,21.3c-0.1-0.3-0.1-0.7,0-1c0.1-0.3,0.2-0.5,0.3-0.7
			c-0.1-0.2-0.1-0.5-0.1-0.7c0-0.2,0-0.4,0.1-0.6c0,0.2,0.1,0.3,0.2,0.4l0.2,0.1c0.1,0,0.2,0.1,0.2,0.2c0,0.1,0,0.1,0,0.2
			c0,0.1,0,0.2-0.1,0.3c0.1-0.1,0.2-0.2,0.3-0.3c0.1-0.1,0.1-0.2,0.1-0.3c0-0.1,0-0.2,0-0.2c0-0.1-0.1-0.1-0.2-0.2
			c-0.1,0-0.2,0-0.3,0c-0.1,0-0.2-0.1-0.2-0.1c-0.1-0.1-0.2-0.2-0.2-0.3c0.2,0,0.4,0,0.5,0c0.1,0,0.2,0,0.3,0
			c0.1-0.2,0.3-0.3,0.5-0.3c0.1,0,0.2,0,0.4,0c0.1-0.1,0.3-0.2,0.5-0.3c0.4,0,0.7,0,1.1,0c0.2,0,0.4,0.1,0.5,0.3c0.1,0,0.2,0,0.4,0
			c0.2,0.1,0.4,0.2,0.5,0.3c0.1,0,0.2,0,0.3,0c0.2,0,0.4,0,0.5,0c0,0.1-0.1,0.2-0.2,0.3c-0.1,0.1-0.1,0.1-0.2,0.1
			c-0.1,0-0.2,0-0.3,0c-0.1,0-0.1,0.1-0.2,0.2c0,0.1,0,0.2,0,0.2c0,0.1,0.1,0.2,0.1,0.3c0.1,0.1,0.2,0.2,0.3,0.3
			c-0.1-0.1-0.1-0.2-0.1-0.3c0-0.1,0-0.1,0-0.2c0-0.1,0.1-0.2,0.2-0.2c0.1,0,0.1-0.1,0.2-0.1c0.1-0.1,0.2-0.2,0.2-0.4
			c0.1,0.2,0.1,0.4,0.1,0.6c0,0.2,0,0.5-0.1,0.7c0.2,0.2,0.3,0.5,0.3,0.7c0.1,0.3,0.1,0.7,0,1l-0.6-0.6c0,0,0-0.1-0.1-0.1
			c0,0,0-0.1,0-0.1c0,0-0.1,0.1-0.1,0.2c0,0.1,0,0.1,0,0.2c0,0.1,0.1,0.1,0.1,0.2c0.2,0.3,0.4,0.4,0.6,0.7c0.1,0.2,0.2,0.4,0.3,0.6
			c0-0.1,0-0.2,0-0.3c0-0.2-0.1-0.4-0.2-0.5c0.8,0.3,1.7,0.4,2.6,0.3c0.8-0.1,1.7-0.2,2.5-0.4c0.8-0.2,1.1-0.3,1.9-0.5
			c0.5-0.1,1-0.2,1.4-0.2c0.6,0,1.1,0,1.7,0.1c0.3,0.1,0.5,0.1,0.8,0.2c0.2,0.1,0.4,0.1,0.7,0.1c0.3,0,0.7-0.2,0.6-0.6
			c0-0.2-0.2-0.4-0.5-0.4c-0.2,0-0.4,0.2-0.5,0.4c0,0.1,0,0.2,0.1,0.2c-0.2,0-0.4,0-0.6-0.2c-0.2-0.2-0.2-0.5,0-0.7
			c0.1-0.1,0.1-0.1,0.2-0.1c-0.3,0-0.5,0.1-0.6,0.4c0,0.1,0,0.2,0,0.3c-0.1,0-0.1,0.1-0.2,0.1c-0.2,0-0.3-0.1-0.3-0.2
			c-0.1-0.2,0-0.3,0.1-0.5c0.1-0.1,0.2-0.2,0.3-0.2c-0.3,0-0.5,0.1-0.7,0.4c-0.1,0.1-0.1,0.3-0.1,0.4c-0.2,0-0.5,0-0.7,0
			c-0.3,0-0.5,0.1-0.8,0.1c0.3-0.3,0.6-0.6,0.9-0.9c0.2-0.2,0.5-0.3,0.8-0.5c-0.1-0.2-0.1-0.5,0.1-0.7c0.1-0.2,0.3-0.3,0.5-0.4
			c0.3-0.1,0.6-0.1,0.9,0c-0.1,0-0.2,0.2-0.3,0.3c-0.1,0.1-0.1,0.3,0,0.4c0.1,0.2,0.4,0.2,0.7,0.3c0.3,0.1,0.5,0.1,0.8,0.3
			c0.3,0.1,0.5,0.3,0.6,0.5c0.2,0.2,0.3,0.5,0.3,0.8c0,0.3-0.1,0.6-0.2,0.8c-0.2,0.3-0.6,0.5-0.9,0.6c-0.2,0.1-0.4,0.1-0.7,0.1
			c0.1,0.2,0.2,0.4,0.3,0.5l0.2,0.2c0,0,0,0.1,0.1,0.1c0.1,0,0.1,0,0.2,0h0.6c0.1,0,0.2,0,0.2,0.1c0.1,0,0.1,0.1,0.2,0.1l0.4,0.5
			l-0.2-0.1c-0.1,0-0.2,0-0.3,0h-0.7h-0.1l0.1,0.2c0,0.1,0.1,0.1,0.1,0.1c0.1,0,0.1,0,0.2,0L34.2,23.9z"/>
	</defs>
	<clipPath id="SVGID_20_">
		<use xlink:href="#SVGID_19_"  style="overflow:visible;"/>
	</clipPath>
	<rect x="4.6" y="12" class="st11" width="37" height="22"/>
</g>
<g>
	<defs>
		<path id="SVGID_21_" d="M26.4,24.8c-0.1-0.2-0.1-0.4,0-0.6c0.1-0.2,0.3-0.4,0.5-0.5c0.2-0.1,0.3-0.2,0.5-0.2c0.2,0,0.3,0,0.4-0.1
			c0.2,0,0.3-0.1,0.5-0.2c-0.1,0.1-0.3,0.2-0.4,0.3c-0.3,0.2-0.5,0.2-0.8,0.4C26.8,24.1,26.6,24.4,26.4,24.8 M29.3,22.3
			c0.1,0.1,0.2,0.2,0.2,0.3c0.1,0.1,0.1,0.3,0.1,0.5c-0.3,0.2-0.4,0.3-0.7,0.5c-0.2,0.1-0.3,0.2-0.5,0.4c-0.1,0.1-0.2,0.2-0.2,0.3
			c0,0.1,0,0.2,0,0.3v0.2c0,0.1,0,0.1,0,0.2c0,0.1-0.1,0.1-0.1,0.2l-0.3,0.3c0-0.1,0-0.1,0-0.2c0-0.1,0-0.1,0-0.2l-0.2-0.6
			c0,0,0-0.1,0-0.2c0,0,0-0.1,0-0.1l-0.2,0.2c0,0-0.1,0.1-0.1,0.2c0,0.1,0,0.1,0,0.2l0.2,0.6c0,0.1,0,0.1,0,0.2
			c0,0.1-0.1,0.2-0.1,0.2l-0.4,0.4c0-0.1,0-0.1,0-0.2c0-0.1,0-0.1,0-0.2l-0.2-0.5c0,0,0-0.1,0-0.2c0,0,0-0.1,0-0.1l-0.2,0.2
			c-0.1,0-0.1,0.1-0.1,0.2c0,0.1,0,0.1,0,0.2l0.2,0.6c0,0.1,0,0.1,0,0.2c0,0.1-0.1,0.2-0.1,0.2l-0.4,0.4c0-0.1,0-0.1,0-0.2
			c0-0.1,0-0.2,0-0.2l-0.1-0.4c-0.1,0.1-0.2,0.2-0.3,0.3c-0.1,0.1-0.3,0.2-0.4,0.3c0,0.3-0.2,0.5-0.5,0.6c-0.2,0.1-0.4,0.1-0.6,0.1
			c0.1-0.1,0.1-0.1,0.1-0.2c0-0.1,0-0.2-0.1-0.3c-0.1-0.1-0.1-0.1-0.2-0.1c0,0,0.1,0.1,0.1,0.1c0,0,0,0.1,0,0.2
			c0,0.2-0.1,0.3-0.2,0.5c-0.1,0.1-0.3,0.2-0.5,0.2h-0.3c-0.1,0-0.2,0-0.3,0c-0.1,0-0.2,0-0.3,0.1c-0.1,0.1-0.2,0.1-0.3,0.3
			c0-0.1-0.1-0.3-0.1-0.4c0-0.2,0.1-0.5,0.2-0.6c0.1-0.1,0.2-0.2,0.4-0.2c-0.2,0-0.5,0.1-0.6,0.3c-0.1,0.1-0.2,0.3-0.2,0.4
			c-0.1,0-0.2,0.1-0.4,0.1c-0.2,0.1-0.3,0.2-0.4,0.3c-0.1-0.1-0.1-0.3-0.1-0.4c0-0.1,0.1-0.2,0.2-0.3c0.1,0,0.1-0.1,0.2-0.1
			c0.1-0.2,0.2-0.3,0.3-0.5c0.1-0.1,0.2-0.2,0.4-0.2c-0.2,0-0.3,0-0.5,0.1c-0.1,0.1-0.2,0.1-0.2,0.2c-0.1,0.1-0.2,0.2-0.2,0.3
			c-0.1,0-0.3,0.1-0.4,0.2c-0.1,0.1-0.2,0.1-0.3,0.2c-0.1-0.1-0.1-0.2-0.1-0.3c0-0.1,0.1-0.2,0.2-0.3c0.1-0.1,0.2-0.2,0.3-0.2
			c0.1-0.4,0.3-0.7,0.7-0.9c0.1-0.1,0.3-0.1,0.5-0.1c0.2,0,0.5,0.1,0.7,0.2c0.2,0.1,0.4,0.1,0.6,0.1c0.3,0,0.5-0.1,0.7-0.2
			c0.2-0.1,0.3-0.3,0.4-0.5c0.1,0,0.1-0.1,0.2-0.1c0.1-0.1,0.2-0.1,0.3-0.1c-0.2,0-0.4,0-0.7,0L24,25.1l0.2-0.2
			c0.2-0.3,0.4-0.6,0.5-0.9c0.2-0.4,0.5-0.7,0.9-0.9c0.2-0.1,0.5-0.1,0.7-0.2c0.2,0,0.5,0,0.7-0.1c0.2,0,0.3,0,0.4-0.2
			c0.1-0.1,0.1-0.1,0.1-0.2c0-0.1,0-0.2,0-0.2l0.2-0.1c0.1,0,0.2-0.1,0.3-0.1c0.2,0,0.5,0,0.7,0l0.2,0.1
			C29.1,22.1,29.2,22.2,29.3,22.3"/>
	</defs>
	<clipPath id="SVGID_22_">
		<use xlink:href="#SVGID_21_"  style="overflow:visible;"/>
	</clipPath>
	<rect x="15.6" y="17" class="st12" width="19" height="16"/>
</g>
<g>
	<defs>
		<path id="SVGID_23_" d="M27.1,5c-0.3,0.1-0.5,0.2-0.8,0.3c-0.7,0-1.5,0-2.2-0.2c-0.4,0-0.9,0-1.3,0.2c-0.4,0.1-0.8,0.4-0.9,0.7
			c-0.2,0.3-0.2,0.7,0,1c0.1,0.3,0.4,0.5,0.7,0.7C22.9,7.9,23.3,8,23.8,8c0.6,0,1.2,0,1.8-0.2c0.7-0.1,1-0.3,1.7-0.4l1.9-0.4
			c0.2-0.2,0.5-0.4,0.7-0.6c0.2-0.2,0.5-0.3,0.8-0.4V5.8c0,0,0-0.1,0-0.1c-0.7,0.1-1.1,0.3-1.8,0.4c-0.7,0.2-1.2,0.3-1.9,0.5
			C26.1,6.8,25.8,7,25,7.1c-0.3,0.1-0.7,0.1-1,0.1c-0.3,0-0.5,0-0.8-0.1C23,7,22.8,6.9,22.8,6.7c-0.1-0.1-0.1-0.2,0-0.3
			c0.1-0.1,0.1-0.1,0.2-0.1c0.1,0,0.3,0.1,0.3,0.2c0,0.1,0,0.2-0.1,0.3c0.1,0,0.2,0,0.3,0c0.2,0,0.4,0,0.5-0.1
			c0.1-0.1,0.2-0.2,0.2-0.3c0-0.2-0.1-0.3-0.2-0.4c-0.1-0.1-0.2-0.1-0.3-0.1c0.3-0.1,0.5,0,0.7,0.2c0.1,0.1,0.1,0.3,0.1,0.4
			c0.3,0,0.6,0,0.9-0.1c0.3-0.1,0.7-0.3,0.9-0.5C26.6,5.6,26.8,5.3,27.1,5"/>
	</defs>
	<clipPath id="SVGID_24_">
		<use xlink:href="#SVGID_23_"  style="overflow:visible;"/>
	</clipPath>
	<rect x="16.6" class="st13" width="19" height="13"/>
</g>
<g>
	<defs>
		<path id="SVGID_25_" d="M17.9,10c0.1,0,0.2,0,0.2,0c0.1,0,0.6,0,0.5,0.3c-0.1,0.3-0.2,0.2-0.3,0.2c-0.1,0-0.1,0-0.2,0
			c-0.1,0-0.1,0-0.2,0c-0.1,0-0.2,0-0.3-0.2C17.6,10.1,17.8,10,17.9,10"/>
	</defs>
	<clipPath id="SVGID_26_">
		<use xlink:href="#SVGID_25_"  style="overflow:visible;"/>
	</clipPath>
	<rect x="12.6" y="5" class="st14" width="11" height="10.5"/>
</g>
<g>
	<defs>
		<path id="SVGID_27_" d="M18.6,9.1c0,0.2,0,0.5-0.1,0.7c-0.1,0-0.3,0-0.4,0c-0.1,0-0.3,0-0.4,0c0-0.3-0.1-0.5,0-0.8l0.2,0.3
			c0,0,0.1-0.3,0.1-0.3c0,0,0.1,0,0.1,0c0,0,0.1,0,0.1,0c0,0,0.1,0.2,0.1,0.2v0.1L18.6,9.1L18.6,9.1z"/>
	</defs>
	<clipPath id="SVGID_28_">
		<use xlink:href="#SVGID_27_"  style="overflow:visible;"/>
	</clipPath>
	<rect x="12.6" y="4" class="st15" width="11" height="10.8"/>
</g>
<g>
	<defs>
		<path id="SVGID_29_" d="M31.6,11.7c0.2,0.3,0.5,0.4,0.8,0.4h0.9c0-0.1-0.1-0.1-0.1-0.2c-0.1-0.1-0.3-0.2-0.4-0.2
			c-0.2,0-0.4,0-0.7,0c-0.3,0-0.5-0.1-0.7-0.2C31.5,11.6,31.6,11.7,31.6,11.7L31.6,11.7z M19.9,9c-0.1,0.1-0.1,0.1-0.1,0.2
			c0,0.1-0.1,0.1-0.1,0.2c0,0.1,0,0.2,0.1,0.2c0,0.1,0.1,0.1,0.1,0.2C20,9.9,20,10,20,10.1c0,0.1,0,0.2,0,0.2c0-0.1,0.1-0.1,0.1-0.2
			c0.1-0.1,0.1-0.2,0.1-0.3c0-0.1,0-0.2-0.1-0.3c0-0.1-0.1-0.1-0.1-0.2c0-0.1-0.1-0.1-0.1-0.2C19.9,9.1,19.9,9,19.9,9L19.9,9z
			 M20.4,9l0.1,0.2c0,0.1,0,0.1,0.1,0.2c0-0.1,0-0.2,0-0.2c0-0.1,0-0.1,0-0.2c0-0.1,0-0.2-0.1-0.3l-0.3-0.3c0,0-0.1-0.1-0.1-0.2
			c0,0,0-0.1,0-0.1C20.1,8,20,8,20,8.1c-0.1,0.1-0.1,0.2-0.1,0.3c0,0.1,0,0.2,0.1,0.2l0.2,0.3C20.2,8.9,20.2,9,20.4,9L20.4,9z
			 M16.2,9c0,0.1,0.1,0.1,0.1,0.2c0,0.1,0,0.2,0,0.2c0,0.1,0,0.2-0.1,0.2c0,0.1-0.1,0.1-0.1,0.2c-0.1,0.1-0.1,0.1-0.1,0.2
			c0,0.1,0,0.2,0,0.2c0-0.1-0.1-0.1-0.1-0.2c-0.1-0.1-0.1-0.2-0.1-0.3c0-0.1,0.1-0.2,0.1-0.3c0-0.1,0.1-0.1,0.1-0.2
			c0-0.1,0.1-0.1,0.1-0.2C16.2,9.1,16.2,9,16.2,9L16.2,9z M15.8,9c0,0.1-0.1,0.1-0.1,0.2l-0.1,0.2c0-0.1,0-0.2,0-0.2
			c0-0.1,0-0.1-0.1-0.2c0-0.1,0-0.2,0.1-0.3L16,8.2c0,0,0-0.1,0.1-0.2c0,0,0-0.1,0-0.1c0.1,0,0.1,0.1,0.1,0.1
			c0.1,0.1,0.1,0.2,0.1,0.3c0,0.1,0,0.2-0.1,0.2L16,8.9L15.8,9L15.8,9z M18.8,6.8c0,0-0.1,0.1-0.1,0.2c0,0.1,0,0.1,0.1,0.2
			c0,0,0.1,0.1,0.2,0.1c0.1,0,0.2-0.1,0.2-0.2c0-0.1,0-0.2-0.1-0.2h0.3c0.1,0,0.2-0.1,0.2-0.1c0.1-0.1,0.1-0.2,0.1-0.2
			c-0.1,0.1-0.2,0.1-0.3,0.1h-0.9c-0.1,0-0.1,0.1-0.1,0.1c0,0,0,0.1,0,0.1v0.1c0.1,0,0.1-0.1,0.1-0.1L18.8,6.8L18.8,6.8z M17.2,6.8
			c0,0-0.1,0.1-0.1,0.2c0,0.1,0,0.1,0.1,0.2c0,0,0.1,0.1,0.2,0.1c0.1,0,0.2-0.1,0.2-0.2c0-0.1,0-0.2-0.1-0.2h0.3
			c0.1,0,0.1,0,0.1,0.1V6.7c0-0.1,0-0.1,0-0.2c0,0-0.1-0.1-0.1-0.1h-0.9c-0.1,0-0.2,0-0.3-0.1c0,0.1,0,0.2,0.1,0.2
			c0.1,0.1,0.1,0.1,0.2,0.1L17.2,6.8L17.2,6.8z M19,9.5c0-0.3,0-0.6,0-0.8c0.3-0.1,0.5-0.3,0.5-0.6c0.6-0.1,1-0.6,0.9-1.2
			c0-0.2-0.1-0.3-0.3-0.4V7c0,0.2,0,0.4-0.2,0.6c-0.1,0.2-0.4,0.3-0.6,0.3h-0.1c0.1,0.8-1.1,0.9-1,0.2c0.2,0,0.3-0.2,0.3-0.3h-0.8
			C17.7,7.8,17.8,8,18,8c0.1,0.7-1.1,0.6-1-0.2h-0.1c-0.2,0-0.4-0.1-0.6-0.3c-0.1-0.2-0.2-0.4-0.2-0.6V6.5c-0.1,0.1-0.2,0.3-0.3,0.4
			c-0.1,0.6,0.3,1.1,0.9,1.2c0,0.3,0.2,0.5,0.5,0.6c0,0.3,0,0.6,0,0.8c-0.1,0.2-0.1,0.3-0.1,0.5c0,0.1,0,0.3,0.2,0.4
			c0.3,0.2,0.4,0.1,0.8,0.1c0.1,0,0.2,0,0.3,0c0.2,0,0.3,0,0.4-0.1c0.1-0.1,0.2-0.2,0.2-0.4C19,9.8,19,9.7,19,9.5L19,9.5z
			 M18.2,12.1c-0.1,0-0.2,0-0.3-0.1c-0.1,0-0.2-0.1-0.3-0.1c0,0-0.1-0.1-0.1-0.1c0,0-0.1-0.1-0.1-0.1c-0.1,0-0.1,0-0.2-0.1
			c-0.1,0-0.1-0.1-0.2-0.1c-0.1,0-0.1-0.1-0.1-0.2c0-0.1,0-0.1,0-0.2c-0.1,0-0.2-0.1-0.2-0.2c-0.1-0.1-0.1-0.1-0.2-0.2
			c0,0-0.1-0.1-0.1-0.2c0,0,0-0.1,0-0.1c0-0.1,0-0.1,0-0.2l0.1-0.2c0,0,0-0.1,0-0.1c0,0,0-0.1,0-0.1l0.2,0.2c0,0,0,0.1,0,0.1
			c0,0,0,0.1,0,0.1c0,0-0.1,0.1-0.1,0.2c0,0,0,0.1,0,0.1l0.2,0.2c0,0,0.1,0,0.1,0c0.1,0,0.1-0.1,0.1-0.1c0,0,0-0.1,0-0.1l0.1,0.2
			c0,0,0,0.1,0,0.1c0,0,0,0.1,0,0.1L17.1,11c0,0,0,0.1,0,0.1c0,0,0,0.1,0.1,0.1c0,0,0.1,0.1,0.1,0.1c0,0,0.1,0,0.1,0
			c0,0,0,0,0.1-0.1V11c0,0,0,0,0-0.1c0,0,0-0.1,0-0.1l0.3,0.1c0.1,0,0.1,0.1,0.1,0.1c0,0,0,0.1,0,0.1v0.2c0,0,0,0.1,0,0.1
			c0,0,0.1,0.1,0.1,0.1c0.1,0,0.1,0.1,0.2,0.1v-0.6h0.2v0.6c0.1,0,0.1,0,0.2-0.1c0.1,0,0.1,0,0.1-0.1c0,0,0-0.1,0-0.1v-0.2
			c0,0,0-0.1,0-0.1c0-0.1,0-0.1,0.1-0.1l0.2-0.1c0,0,0,0.1,0,0.1c0,0,0,0,0,0.1v0.2c0,0,0,0.1,0.1,0.1c0.1,0,0,0,0.1,0
			c0,0,0.1,0,0.1-0.1c0,0,0-0.1,0.1-0.1c0,0,0-0.1,0-0.1l-0.1-0.2c0,0,0-0.1,0-0.1c0,0,0-0.1,0-0.1l0.1-0.2c0,0,0,0.1,0,0.1
			c0,0,0,0.1,0.1,0.1c0,0,0.1,0,0.1,0l0.2-0.2c0,0,0-0.1,0-0.1c0-0.1,0-0.1-0.1-0.2c-0.1-0.1,0-0.1,0-0.1c0,0,0-0.1,0-0.1l0.2-0.2
			c0,0,0,0.1,0,0.1c0,0,0,0.1,0,0.1l0.1,0.2c0,0.1,0,0.1,0,0.2c0,0,0,0.1,0,0.1c0,0.1-0.1,0.1-0.1,0.2c0,0.1-0.1,0.1-0.2,0.2
			c-0.1,0.1-0.1,0.1-0.2,0.2c0,0.1,0,0.1,0,0.2c0,0.1-0.1,0.1-0.1,0.2c0,0.1-0.1,0.1-0.2,0.1c-0.1,0-0.1,0.1-0.2,0.1
			c0,0.1,0,0.1-0.1,0.1c0,0-0.1,0.1-0.1,0.1C18.6,12,18.6,12,18.5,12C18.4,12.1,18.2,12.1,18.2,12.1L18.2,12.1z M18.5,5.2h0.3
			c0,0,0.1,0,0.1,0c0,0,0.1,0,0.1,0.1l0.3,0.4l0.1,0.1c0,0,0.1,0,0.1,0h-0.3c-0.1,0-0.1,0-0.2,0c-0.1,0-0.1-0.1-0.1-0.1l-0.2-0.3
			L18.5,5.2L18.5,5.2L18.5,5.2z M17.1,5.2h0.3c0,0,0.1,0,0.1,0c0,0,0.1,0,0.1,0.1l0.3,0.4c0,0,0,0,0,0.1c0,0,0.1,0,0.1,0h-0.3
			c-0.1,0-0.1,0-0.2,0c-0.1,0-0.1-0.1-0.1-0.1L17.1,5.2L17.1,5.2C17,5.2,17,5.2,17.1,5.2L17.1,5.2z M17.7,5.1H18
			c0.1,0,0.1,0,0.2,0.1c0.1,0,0.1,0.1,0.1,0.1l0.4,0.5l0.1,0.1c0,0,0.1,0.1,0.1,0.1h-0.3c-0.1,0-0.1,0-0.2-0.1c0,0-0.1-0.1-0.1-0.1
			L18,5.3l-0.1-0.1C17.8,5.1,17.8,5.1,17.7,5.1z M34.2,10.9h0.7c0.2,0,0.3,0.1,0.4,0.2l0.4,0.5l-0.2-0.1c-0.1,0-0.2,0-0.3,0h-0.7
			h-0.1l0.1,0.2c0,0.1,0.1,0.1,0.1,0.1c0.1,0,0.1,0,0.2,0h0.7c0.1,0,0.2,0,0.2,0.1c0.1,0,0.1,0.1,0.2,0.1l0.4,0.5l-0.2-0.1
			c-0.1,0-0.2,0-0.3,0h-0.7h-0.1l0.2,0.2c0.1,0.1,0.2,0.1,0.3,0.1c0.1,0,0.1,0,0.2,0h0.1c0.1,0,0.3,0,0.4,0.1c0.1,0,0.2,0.1,0.3,0.2
			c0.1,0.1,0.1,0.2,0.1,0.3c0,0.1,0,0.2,0,0.4c0-0.1-0.1-0.2-0.2-0.2c-0.1,0-0.1,0-0.2,0h-0.4c0.1,0.1,0.1,0.3,0.1,0.4
			c0,0.2,0,0.3-0.1,0.5c0.2,0.1,0.3,0.4,0.2,0.6c0,0.2-0.1,0.3-0.2,0.4c-0.2,0.2-0.4,0.1-0.6,0.2c-0.3,0-0.2,0-0.4,0
			c-0.1,0-0.1,0.1-0.2,0.1c-0.1,0.1-0.1,0.2-0.2,0.3c-0.1-0.1-0.2-0.3-0.2-0.4c-0.2-0.1-0.2-0.2-0.3-0.4c0-0.1,0-0.3,0.1-0.4
			c0.1-0.1,0.2-0.2,0.4-0.2c-0.3,0-0.5,0.1-0.6,0.3c-0.2,0.2-0.1,0.4,0,0.7c0,0-0.1,0-0.2,0c-0.1,0-0.2,0-0.3,0l-0.2,0.1
			c-0.2,0.1-0.4,0.2-0.5,0.4c-0.1-0.1-0.1-0.2-0.1-0.3c0-0.1,0-0.2,0.1-0.3c0-0.3,0.1-0.5,0.3-0.7c0.1-0.1,0.3-0.3,0.4-0.3
			c-0.1,0-0.3,0-0.4,0.1c-0.3,0.1-0.5,0.4-0.5,0.7c-0.1,0-0.2,0.1-0.4,0.1c-0.1,0.1-0.2,0.2-0.3,0.3c-0.1-0.2-0.1-0.4,0-0.6
			c0-0.1,0.1-0.2,0.2-0.2c-0.1-0.4,0.1-0.8,0.5-1c0.2-0.1,0.3-0.1,0.5-0.1c0.3,0,0.4,0.1,0.7,0c0.1,0,0.2,0,0.3-0.1
			c0.1-0.1,0.1-0.2,0.1-0.4c0-0.1,0-0.2-0.1-0.3h-0.7c-0.1,0.2-0.3,0.3-0.5,0.4c-0.1,0.1-0.3,0.1-0.4,0.1c0-0.1,0-0.2,0-0.2
			c-0.1-0.1-0.1-0.2-0.3-0.3c-0.2-0.1-0.4-0.2-0.5-0.3c-0.2-0.1-0.4-0.3-0.6-0.4c-0.3-0.4-0.4-0.9-0.4-1.4c0-0.2,0-0.3,0-0.5
			c0-0.2-0.1-0.3-0.2-0.4c-0.1-0.1-0.2-0.2-0.3-0.3c-0.3-0.2-0.6-0.2-0.9-0.2c-0.5,0-1,0.2-1.5,0.5c-1,0.4-1.5,0.8-2.5,1.3
			c-0.7,0.3-1,0.4-1.8,0.8C23.1,12,23,12.2,23,12.4c0,0.1,0.1,0.1,0.1,0.2c0.1,0,0.1,0,0.2,0l-0.5,0.2c-0.1,0-0.2,0-0.2,0
			c-0.1,0-0.2,0-0.2-0.1l-0.6-0.3l-0.2-0.1c-0.1,0-0.2,0-0.3,0c-0.1,0-0.2,0-0.3,0h0.1h0.1l0.8,0.4c0.1,0,0.1,0.1,0.2,0.1
			c0.1,0,0.1,0,0.2,0L22,13c-0.1,0-0.2,0-0.2,0c-0.1,0-0.2,0-0.2-0.1l-1-0.6c0.1-0.1,0.1-0.2,0.1-0.3c0-0.1,0-0.2,0-0.3
			c0.2-0.1,0.3-0.3,0.4-0.4c0.1-0.1,0.1-0.2,0.1-0.3c0-0.1,0-0.2,0-0.3l0.1-0.1c0.1-0.1,0.1-0.1,0.2-0.2c0.1-0.1,0.1-0.3,0.1-0.5
			c0-0.1,0-0.2,0-0.3c0-0.1-0.1-0.2-0.1-0.2c0-0.1-0.1-0.1-0.2-0.2c0,0-0.1,0-0.1-0.1c0,0-0.1-0.1-0.1-0.2l-0.1,0.2c0,0,0,0.1,0,0.1
			c0,0,0,0.1,0.1,0.1c0.1,0.1,0.1,0.1,0.1,0.2c0.1,0.1,0.1,0.2,0.1,0.3c0,0.2,0,0.3-0.1,0.5c0,0-0.1,0.1-0.1,0.1L21,10.3l-0.1-0.2
			c0,0,0-0.1,0-0.1c0,0,0-0.1,0-0.1l-0.2,0.2c0,0.1,0,0.1,0,0.2c0,0,0,0.1,0,0.1l0.2,0.3c0,0.1,0,0.1,0,0.2c0,0.1,0,0.1,0,0.2
			c0,0.1-0.1,0.2-0.1,0.2c0,0.1-0.1,0.1-0.2,0.2c0-0.2-0.1-0.2-0.1-0.4c0-0.1-0.1-0.1-0.1-0.2c0,0,0-0.1,0-0.1c0-0.1,0-0.1,0-0.2
			l-0.2,0.2c0,0,0,0.1,0,0.1c0,0.1,0,0.1,0,0.2c0,0.2,0.1,0.3,0.2,0.5c0,0.2,0,0.3,0,0.5c0,0.1,0,0.1-0.1,0.2c0,0.1,0,0.1-0.1,0.1
			l0.1,0h0.1l0.8,0.4c0.1,0,0.1,0.1,0.2,0.1c0.1,0,0.1,0,0.2,0l-0.4,0.2c-0.1,0-0.2,0-0.2,0c-0.1,0-0.2,0-0.2-0.1l-0.9-0.5
			c0-0.1,0-0.2,0.1-0.3c0-0.1,0-0.2,0-0.2c0-0.1,0-0.2,0-0.3c0-0.1-0.1-0.2-0.1-0.3c0,0,0-0.1,0-0.1c0-0.1,0-0.1,0-0.2l-0.2,0.2
			c-0.1,0,0,0.1-0.1,0.2c0,0,0,0.1,0,0.1l0.1,0.4c0,0.1,0,0.2,0,0.3c0,0.1,0,0.3-0.1,0.4h0.1l0.8,0.4c0.1,0,0.1,0.1,0.2,0.1
			c0.1,0,0.1,0,0.2,0l-0.4,0.2c-0.1,0-0.2,0-0.2,0c-0.1,0-0.2,0-0.2-0.1l-0.8-0.4c0.1-0.1,0.1-0.3,0.1-0.5c0-0.1,0-0.2,0-0.2
			c0-0.1,0-0.1-0.1-0.2c0-0.1,0-0.1,0-0.2c0,0,0-0.1,0-0.1l-0.2,0.1c0,0-0.1,0.1-0.1,0.1c0,0.1,0,0.1,0,0.2c0,0.1,0,0.1,0,0.2
			c0,0.1,0.1,0.2,0.1,0.3c0,0.1,0,0.2,0,0.3c0,0.1-0.1,0.2-0.2,0.3l0.8,0.4c0.1,0,0.1,0.1,0.2,0.1c0.1,0,0.1,0,0.2,0l-0.3,0.1
			c-0.1,0-0.2,0-0.3,0.1c-0.1,0-0.2,0-0.3,0l-0.4-0.2c-0.1,0-0.1-0.1-0.1-0.1c0,0-0.1-0.1-0.1-0.1v-0.9h-0.3v1.1
			c-0.1,0-0.3-0.1-0.4-0.2c-0.1-0.1-0.1-0.2-0.2-0.2c0-0.1,0-0.2,0-0.3c0-0.1,0-0.2,0.1-0.3c0-0.1,0-0.1,0-0.2c0-0.1,0-0.1,0-0.2
			c0,0,0-0.1-0.1-0.1l-0.2-0.1c0,0,0,0.1,0,0.1c0,0.1,0,0.1,0,0.2c0,0.1-0.1,0.1-0.1,0.2c0,0.1,0,0.2,0,0.2c0,0.1,0,0.2,0,0.3
			c0,0.1,0.1,0.2,0.2,0.3l-0.6,1c-0.1,0.1-0.1,0.1-0.2,0.2c-0.1,0-0.2,0.1-0.2,0.1h-0.5l0.2-0.1c0.1-0.1,0.1-0.1,0.2-0.2l0.4-0.6
			c0,0,0.1-0.1,0.1-0.1c0,0,0.1-0.1,0.1-0.1h-0.3c-0.1,0-0.1,0-0.2,0.1c-0.1,0-0.1,0.1-0.2,0.2l-0.4,0.6c-0.1,0.1-0.1,0.1-0.2,0.2
			c-0.1,0-0.2,0.1-0.2,0.1h-0.5l0.2-0.1c0.1-0.1,0.1-0.1,0.2-0.2l0.4-0.6c0,0,0-0.1,0.1-0.1c0,0,0.1-0.1,0.1-0.1h-0.4
			c-0.2,0-0.3,0.1-0.4,0.3l-0.1,0.1l-0.4,0.5c0,0.1-0.1,0.1-0.2,0.2c-0.1,0-0.1,0.1-0.2,0.1c0,0,0.1-0.1,0.1-0.2
			c0-0.1,0-0.2-0.1-0.3c-0.1-0.1-0.2-0.1-0.3-0.1c-0.1,0-0.2,0-0.2,0.1c-0.1,0.1-0.1,0.2-0.1,0.3c0.1,0.1,0.2,0.2,0.2,0.3
			c0,0.2-0.1,0.4-0.2,0.5c-0.1,0.1-0.2,0.1-0.3,0.1c0,0.1-0.1,0.2-0.2,0.3c-0.1,0.1-0.3,0.2-0.5,0.2c0-0.1,0.1-0.1,0.1-0.2
			c0-0.1,0-0.1,0-0.2c-0.1,0-0.2,0-0.2-0.1c-0.1-0.1-0.2-0.2-0.2-0.3c0-0.2,0-0.4,0.2-0.5c0.1-0.1,0.2-0.1,0.3-0.2
			c-0.1,0-0.2,0-0.3,0c-0.3,0.1-0.4,0.4-0.4,0.7c0,0.1,0,0.2,0.1,0.3c-0.1,0-0.3,0-0.4,0c-0.1,0-0.2,0-0.3,0c-0.2,0-0.3,0.1-0.4,0.2
			c-0.1,0.1-0.2,0.2-0.3,0.3c-0.1-0.2-0.2-0.4-0.1-0.6c0.1-0.1,0.1-0.2,0.3-0.3c-0.1-0.4,0.2-0.9,0.6-1c-0.3,0-0.6,0.1-0.7,0.3
			c-0.2,0.2-0.2,0.4-0.2,0.6l-0.1,0.2c-0.1,0-0.1,0-0.2-0.1l-0.1-0.1c-0.1,0-0.2,0-0.3,0.1c-0.1,0.1-0.2,0.2-0.3,0.3
			c-0.1-0.1-0.2-0.2-0.2-0.3c0-0.1,0.1-0.2,0.2-0.3c0-0.1,0.1-0.1,0.2-0.2c0-0.1,0-0.3,0-0.4c0.1-0.2,0.2-0.4,0.4-0.6
			c0.2-0.1,0.5-0.2,0.7-0.2c0.1,0,0.2,0,0.4,0c-0.1-0.1-0.3-0.2-0.4-0.2c-0.2,0-0.4,0-0.5,0.1c0.1-0.1,0.2-0.3,0.3-0.3
			c0.2-0.1,0.3-0.1,0.5-0.1c0.1,0,0.3,0,0.4,0.1c0.2,0.1,0.4,0.1,0.6,0.1c0.6,0,0.9-0.3,1.5-0.6c0.4-0.2,0.2-0.2,0.9-0.5H16
			c0.1,0.1,0.2,0.2,0.3,0.2l0.2,0.1c0,0,0,0.1,0.1,0.1c0,0.1,0.1,0.1,0.1,0.2c0.1,0.1,0.1,0.1,0.2,0.1c0-0.1-0.1-0.2-0.1-0.3
			c0-0.1,0-0.2,0-0.2l0.1-0.3c0,0,0-0.1,0-0.1c0-0.1,0-0.1-0.1-0.2l-0.2-0.2c0,0.1,0,0.1,0,0.2c0,0,0,0.1,0,0.1l-0.1,0.3
			c-0.1,0-0.2-0.1-0.2-0.1c-0.1-0.1-0.1-0.1-0.2-0.2c0-0.1,0-0.1,0-0.2l0.1-0.4c0,0,0-0.1,0-0.1c0,0,0-0.1,0-0.1l-0.2-0.2
			c0,0.1,0,0.1,0,0.2v0.1c0,0.1-0.1,0.2-0.1,0.3l-0.1,0.4c-0.1-0.1-0.1-0.1-0.2-0.2c-0.1-0.1-0.1-0.1-0.1-0.2c0-0.1,0-0.1,0-0.2
			c0-0.1,0-0.1,0-0.2l0.2-0.3c0-0.1,0-0.1,0-0.2c0,0,0-0.1,0-0.1L15.7,10c0,0,0,0.1,0,0.1c0,0,0,0.1,0,0.1l-0.1,0.2l-0.1,0.2
			c-0.1,0-0.1-0.1-0.1-0.1c-0.1-0.1-0.2-0.3-0.1-0.5c0-0.1,0-0.2,0.1-0.3c0.1-0.1,0.1-0.1,0.1-0.2c0,0,0.1-0.1,0.1-0.1
			c0,0,0-0.1,0-0.1l-0.1-0.2c0,0.1,0,0.1-0.1,0.2c0,0-0.1,0-0.1,0.1c-0.1,0.1-0.1,0.1-0.2,0.2C15.1,9.6,15,9.7,15,9.8
			c0,0.1,0,0.2,0,0.3c0,0.2,0,0.3,0.1,0.5c0,0.1,0.1,0.2,0.2,0.2l0.1,0.1c0,0.1,0,0.2,0,0.3c0,0.1,0.1,0.2,0.1,0.3
			c0.1,0.2,0.2,0.3,0.3,0.4h-1.3c-0.1,0-0.2,0-0.3-0.1c-0.1,0-0.1-0.1-0.2-0.1l-0.4-0.4l0.2,0.1c0.1,0,0.2,0,0.3,0h0.8H15h0.2
			L15,11.2c-0.1-0.1-0.2-0.1-0.3-0.1c-0.1,0-0.2,0-0.3,0h-0.8c-0.1,0-0.2,0-0.3-0.1c-0.1,0-0.1-0.1-0.2-0.1l-0.4-0.4l0.2,0.1
			c0.1,0,0.2,0,0.3,0h0.9h0.2l-0.2-0.2c-0.1-0.1-0.2-0.1-0.3-0.1c-0.1,0-0.2,0-0.3,0h-0.8c-0.1,0-0.2,0-0.3-0.1
			c-0.1,0-0.2-0.1-0.2-0.1L12,9.7c0.1,0,0.1,0.1,0.2,0.1c0.1,0,0.2,0,0.3,0h0.9h0.1l-0.2-0.2c-0.1-0.1-0.2-0.1-0.3-0.1
			c-0.1,0-0.2,0-0.3,0h-0.8c-0.1,0-0.2,0-0.3-0.1c-0.1,0-0.1-0.1-0.2-0.1L11.4,9c0.1,0,0.2,0,0.4,0c0.2-0.1,0.3-0.2,0.3-0.4
			c0-0.1-0.1-0.3-0.2-0.3c-0.1-0.1-0.2-0.1-0.3-0.1c-0.1,0-0.1,0.1-0.2,0.1c-0.1,0-0.2,0.1-0.3,0.1c-0.1,0-0.2,0-0.3-0.1
			c-0.2-0.1-0.4-0.2-0.4-0.4C10.2,8,10,7.9,9.9,7.8C9.8,7.7,9.8,7.5,9.9,7.4c0,0,0.1,0.1,0.1,0.1c0.1,0,0.2,0,0.2,0
			c0-0.1,0-0.2,0.1-0.3C10.4,7.1,10.5,7,10.6,7c0.1,0,0.1,0,0.2,0c0.1,0,0.1,0.1,0.2,0c0.3-0.1,0.2-0.3,0-0.3c-0.2,0-0.1,0-0.2,0.1
			c-0.1,0-0.1,0-0.2,0c-0.2,0-0.4-0.1-0.5-0.2C10,6.4,10,6.2,10,6.1c0-0.2,0-0.3,0.1-0.4c0-0.1,0.1-0.1,0.1-0.2
			c0-0.1-0.1-0.1-0.2-0.2C9.9,5.2,9.8,5.2,9.7,5.2C9.8,5,9.9,4.9,10.1,4.9c0.2,0,0.3,0,0.5,0.2c0.3-0.1,0.6,0,0.8,0.2
			c0.1,0.1,0.1,0.2,0.2,0.3c0-0.2,0-0.4-0.2-0.5c-0.1-0.1-0.3-0.2-0.5-0.2c0-0.1,0.1-0.1,0.1-0.2c0,0,0.1-0.1,0.1-0.1
			c0-0.1,0-0.1-0.1-0.2c-0.1-0.1-0.2-0.2-0.3-0.2C10.8,4.1,11,4,11.1,4c0.3,0,0.5,0.2,0.6,0.4C12,4.6,12.2,5,12.2,5.4
			c0.1-0.1,0.2-0.2,0.2-0.3c0-0.1,0-0.2-0.1-0.3c0.1-0.1,0.1-0.2,0.1-0.3c0-0.1,0-0.3-0.1-0.4c0.2,0,0.4,0.2,0.5,0.3
			c0.1,0.1,0.1,0.3,0.1,0.4c0.2,0.2,0.3,0.4,0.3,0.7c0,0.3-0.1,0.4-0.2,0.6c-0.1,0.2-0.2,0.3-0.2,0.5c-0.1,0.4,0.3,0.6,0.6,0.9
			c0.2,0.2,0.4,0.4,0.7,0.6c0.3,0.2,0.5,0.4,0.8,0.5c0,0.1-0.1,0.1-0.1,0.2c0,0.1,0,0.1,0.1,0.2c0.1-0.2,0.2-0.4,0.3-0.6
			c0.2-0.3,0.4-0.4,0.6-0.6c0-0.1,0.1-0.1,0.1-0.2c0-0.1,0-0.1,0-0.2c0-0.1,0-0.1-0.1-0.2c0,0,0,0.1,0,0.1l-0.1,0.1L15,8
			c-0.1-0.3-0.1-0.7,0-1.1c0.1-0.3,0.2-0.5,0.3-0.7c-0.1-0.2-0.1-0.5-0.1-0.7c0-0.2,0-0.4,0.1-0.6c0,0.2,0.1,0.3,0.2,0.4l0.2,0.1
			c0.1,0,0.2,0.1,0.2,0.2c0,0.1,0,0.1,0,0.2c0,0.1,0,0.2-0.1,0.3C15.9,6.1,16,6,16.1,5.9c0.1-0.1,0.1-0.2,0.1-0.3c0-0.1,0-0.2,0-0.3
			c0-0.1-0.1-0.1-0.2-0.1c-0.1,0-0.2,0-0.3,0c-0.1,0-0.2-0.1-0.2-0.1c-0.1-0.1-0.2-0.2-0.2-0.3c0.2-0.1,0.4-0.1,0.6,0
			c0.1,0,0.2,0,0.3,0c0.1-0.2,0.3-0.3,0.5-0.3c0.1,0,0.2-0.1,0.4,0c0.2-0.1,0.3-0.2,0.5-0.3c0.4,0,0.7,0,1.1,0
			c0.2,0,0.4,0.1,0.5,0.3c0.1,0,0.2,0,0.4,0c0.2,0.1,0.4,0.2,0.5,0.3c0.1,0,0.2,0,0.3,0c0.2,0,0.4,0,0.5,0C21,4.8,20.9,5,20.8,5
			c-0.1,0.1-0.1,0.1-0.2,0.1c-0.1,0-0.2,0-0.3,0c-0.1,0-0.1,0.1-0.2,0.1c0,0.1,0,0.2,0,0.3c0,0.1,0.1,0.2,0.1,0.3
			c0.1,0.1,0.2,0.2,0.3,0.3c-0.1-0.1-0.1-0.2-0.1-0.3c0-0.1,0-0.1,0-0.2c0-0.1,0.1-0.2,0.2-0.2c0.1,0,0.1-0.1,0.2-0.1
			C21,5.3,21,5.1,21.1,5c0.1,0.2,0.1,0.4,0.1,0.6c0,0.2-0.1,0.5-0.1,0.7c0.2,0.2,0.3,0.5,0.3,0.7c0.1,0.3,0.1,0.7,0,1.1l-0.6-0.6
			l-0.1-0.1c0,0,0-0.1,0-0.1c0,0-0.1,0.1-0.1,0.2c0,0.1,0,0.1,0,0.2c0,0.1,0.1,0.1,0.1,0.2c0.2,0.3,0.4,0.4,0.6,0.6
			c0.1,0.2,0.2,0.4,0.3,0.6c0-0.1,0-0.2,0-0.3c0-0.2-0.1-0.4-0.2-0.5c0.8,0.3,1.7,0.4,2.6,0.3c0.8-0.1,1.7-0.2,2.5-0.4
			c0.8-0.2,1.1-0.3,1.9-0.5c0.5-0.1,1-0.2,1.4-0.2c0.6,0,1.1,0,1.7,0.1c0.3,0.1,0.5,0.1,0.8,0.2c0.2,0.1,0.4,0.1,0.7,0.1
			c0.3,0,0.7-0.2,0.6-0.6c0-0.2-0.2-0.4-0.5-0.4c-0.2,0-0.4,0.2-0.5,0.4c0,0.1,0,0.2,0.1,0.2c-0.2,0-0.5,0-0.6-0.2
			c-0.2-0.2-0.2-0.5,0-0.7c0.1-0.1,0.1-0.1,0.2-0.1c-0.3,0-0.5,0.1-0.6,0.4c0,0.1,0,0.2,0,0.3c-0.1,0-0.1,0.1-0.2,0.1
			c-0.2,0-0.3-0.1-0.3-0.2c-0.1-0.2,0-0.3,0.1-0.5c0.1-0.1,0.2-0.2,0.3-0.2c-0.3,0-0.5,0.2-0.7,0.4c-0.1,0.1-0.1,0.3-0.1,0.4
			c-0.3,0-0.4,0-0.7,0c-0.3,0-0.5,0.1-0.8,0.1c0.3-0.3,0.6-0.6,0.9-0.9C30.4,6.2,30.7,6,31,5.9c-0.1-0.2-0.1-0.5,0.1-0.7
			c0.1-0.2,0.3-0.3,0.5-0.4c0.3-0.1,0.6-0.1,0.9,0c-0.1,0.1-0.2,0.2-0.3,0.3c0,0.1,0,0.3,0.1,0.4c0.1,0.2,0.4,0.2,0.7,0.3
			c0.3,0.1,0.5,0.1,0.8,0.3c0.3,0.1,0.5,0.3,0.6,0.5c0.2,0.2,0.3,0.5,0.3,0.8c0,0.3-0.1,0.6-0.2,0.8c-0.2,0.3-0.6,0.5-0.9,0.6
			c-0.2,0.1-0.4,0.1-0.7,0.1c0,0,0.2,0.3,0.3,0.5l0.2,0.2c0,0,0,0.1,0.1,0.1c0.1,0,0.1,0,0.2,0h0.6c0.1,0,0.2,0,0.2,0.1
			c0.1,0,0.1,0.1,0.2,0.1l0.4,0.5l-0.2-0.1c-0.1,0-0.2,0-0.3,0H34h-0.1c0,0-0.1,0-0.1,0l0.1,0.2c0,0.1,0.1,0.1,0.1,0.1
			c0.1,0,0.1,0,0.2,0L34.2,10.9z"/>
	</defs>
	<clipPath id="SVGID_30_">
		<use xlink:href="#SVGID_29_"  style="overflow:visible;"/>
	</clipPath>
	<rect x="4.6" y="-1" class="st16" width="37" height="22"/>
</g>
<g>
	<defs>
		<path id="SVGID_31_" d="M26.4,12.8c-0.1-0.2-0.1-0.4,0-0.6c0.1-0.2,0.3-0.4,0.5-0.5c0.2-0.1,0.3-0.2,0.5-0.2c0.2,0,0.3,0,0.4-0.1
			c0.2,0,0.3-0.1,0.5-0.2c-0.1,0.1-0.3,0.2-0.4,0.3c-0.3,0.2-0.5,0.2-0.8,0.4C26.8,12.1,26.5,12.4,26.4,12.8 M29.3,10.3
			c0.1,0.1,0.2,0.2,0.2,0.3c0.1,0.1,0.1,0.3,0.1,0.5c-0.3,0.2-0.4,0.3-0.7,0.5c-0.2,0.1-0.3,0.3-0.5,0.4c-0.1,0.1-0.2,0.2-0.2,0.3
			c0,0.1,0,0.2,0,0.3v0.2c0,0.1,0,0.1,0,0.2c0,0.1-0.1,0.1-0.1,0.2l-0.3,0.3c0-0.1,0-0.1,0-0.2c0-0.1,0-0.1,0-0.2l-0.2-0.6
			c0,0,0-0.1,0-0.1c0,0,0-0.1,0-0.1l-0.2,0.2c0,0-0.1,0.1-0.1,0.2c0,0.1,0,0.1,0,0.2l0.2,0.6c0,0.1,0,0.1,0,0.2
			c0,0.1-0.1,0.2-0.1,0.2l-0.4,0.4c0-0.1,0-0.1,0-0.2c0-0.1,0-0.1,0-0.2l-0.2-0.6c0,0,0-0.1,0-0.1c0,0,0-0.1,0-0.1l-0.2,0.2
			c-0.1,0-0.1,0.1-0.1,0.2c0,0.1,0,0.1,0,0.2l0.2,0.6c0,0.1,0,0.1,0,0.2c0,0.1-0.1,0.2-0.1,0.2l-0.4,0.4c0-0.1,0-0.1,0-0.2
			c0-0.1,0-0.1,0-0.2l-0.1-0.4c-0.1,0.1-0.2,0.2-0.3,0.3c-0.1,0.1-0.3,0.2-0.4,0.3c0,0.3-0.2,0.5-0.5,0.6c-0.2,0.1-0.4,0.1-0.6,0.1
			c0.1-0.1,0.1-0.2,0.1-0.2c0-0.1,0-0.2-0.1-0.3c-0.1-0.1-0.1-0.1-0.2-0.1c0,0,0.1,0.1,0.1,0.1c0,0.1,0,0.1,0,0.2
			c0,0.2-0.1,0.3-0.2,0.5c-0.1,0.1-0.3,0.2-0.5,0.2h-0.3c-0.1,0-0.2,0-0.3,0c-0.1,0-0.2,0-0.3,0.1c-0.1,0.1-0.2,0.1-0.3,0.3
			c-0.1-0.4,0-0.7,0.2-1c0.1-0.1,0.2-0.2,0.4-0.2c-0.2,0-0.5,0.1-0.6,0.3c-0.1,0.1-0.2,0.3-0.2,0.4c-0.1,0-0.2,0.1-0.4,0.1
			c-0.1,0.1-0.3,0.2-0.4,0.3c-0.1-0.1-0.1-0.3-0.1-0.4c0-0.1,0.1-0.2,0.2-0.3c0.1,0,0.1-0.1,0.2-0.1c0.1-0.2,0.2-0.3,0.3-0.5
			c0.1-0.1,0.2-0.2,0.4-0.2c-0.2,0-0.3,0-0.5,0.1c-0.1,0.1-0.2,0.1-0.2,0.2c-0.1,0.1-0.2,0.2-0.2,0.3c-0.1,0-0.3,0.1-0.4,0.2
			c-0.1,0.1-0.2,0.1-0.3,0.2c-0.1-0.1-0.1-0.2-0.1-0.3c0-0.1,0.1-0.2,0.2-0.3c0.1-0.1,0.2-0.2,0.3-0.2c0.1-0.4,0.3-0.7,0.7-0.9
			c0.1-0.1,0.3-0.1,0.5-0.1c0.2,0,0.5,0.1,0.7,0.2c0.2,0.1,0.4,0.1,0.6,0.1c0.2,0,0.5-0.1,0.6-0.2c0.2-0.1,0.3-0.3,0.4-0.5
			c0.1,0,0.1-0.1,0.2-0.1c0.1-0.1,0.2-0.1,0.3-0.1c-0.2,0-0.4,0-0.7,0c-0.1,0-0.3,0-0.4,0.1l0.2-0.2c0.2-0.3,0.4-0.6,0.5-0.9
			c0.2-0.4,0.5-0.7,0.9-0.9c0.2-0.1,0.5-0.1,0.7-0.1c0.2,0,0.5,0,0.7-0.1c0.2,0,0.3,0,0.4-0.2c0.1-0.1,0.1-0.1,0.1-0.2
			c0-0.1,0-0.2,0-0.2l0.2-0.1c0.1,0,0.2-0.1,0.3-0.1c0.2,0,0.5,0,0.7,0c0.1,0,0.2,0,0.2,0.1l0.2,0.1"/>
	</defs>
	<clipPath id="SVGID_32_">
		<use xlink:href="#SVGID_31_"  style="overflow:visible;"/>
	</clipPath>
	<rect x="15.6" y="5" class="st17" width="19" height="16"/>
</g>
</svg>
